<svg width="110" height="111" viewBox="0 0 110 111" fill="none" xmlns="http://www.w3.org/2000/svg">
<path d="M39.1016 110.859C49.3281 110.859 57.5781 102.609 57.5781 92.3828V73.9062H39.1016C28.875 73.9062 20.625 82.1563 20.625 92.3828C20.625 102.609 28.875 110.859 39.1016 110.859Z" fill="#0ACF83"/>
<path d="M20.625 55.4297C20.625 45.2031 28.875 36.9531 39.1016 36.9531H57.5781V73.9062H39.1016C28.875 73.9062 20.625 65.6562 20.625 55.4297Z" fill="#A259FF"/>
<path d="M20.625 18.4766C20.625 8.25 28.875 0 39.1016 0H57.5781V36.9531H39.1016C28.875 36.9531 20.625 28.7031 20.625 18.4766Z" fill="#F24E1E"/>
<path d="M57.5781 0H76.0547C86.2812 0 94.5312 8.25 94.5312 18.4766C94.5312 28.7031 86.2812 36.9531 76.0547 36.9531H57.5781V0Z" fill="#FF7262"/>
<path d="M94.5312 55.4297C94.5312 65.6562 86.2812 73.9062 76.0547 73.9062C65.8281 73.9062 57.5781 65.6562 57.5781 55.4297C57.5781 45.2031 65.8281 36.9531 76.0547 36.9531C86.2812 36.9531 94.5312 45.2031 94.5312 55.4297Z" fill="#1ABCFE"/>
</svg>
