<svg width="125" height="125" viewBox="0 0 125 125" fill="none" xmlns="http://www.w3.org/2000/svg">
<path d="M121.818 57.0098L67.9932 3.1875C64.8955 0.0878907 59.8682 0.0878907 56.7656 3.1875L45.5908 14.3652L59.7686 28.543C63.0645 27.4307 66.8418 28.1768 69.4678 30.8027C70.7193 32.0553 71.5929 33.6348 71.9889 35.3605C72.3849 37.0863 72.2872 38.8887 71.7071 40.5615L85.3711 54.2275C88.6768 53.0879 92.4922 53.8242 95.1309 56.4688C98.8223 60.1572 98.8223 66.1367 95.1309 69.8271C94.2537 70.7048 93.2121 71.401 92.0657 71.876C90.9193 72.351 89.6906 72.5955 88.4497 72.5955C87.2088 72.5955 85.9801 72.351 84.8337 71.876C83.6874 71.401 82.6458 70.7048 81.7686 69.8271C80.4506 68.5084 79.5522 66.8292 79.1864 65.0009C78.8206 63.1727 79.0038 61.2771 79.7129 59.5527L66.9707 46.8096L66.9688 80.3457C67.8933 80.801 68.7373 81.4039 69.4678 82.1309C73.1582 85.8193 73.1582 91.7969 69.4678 95.4932C65.7774 99.1816 59.7959 99.1816 56.1094 95.4932C52.4199 91.7979 52.1172 85.8203 55.8057 82.1309C56.7178 81.2197 57.6172 80.5312 58.5938 80.0703V46.2236C57.6172 45.7627 56.7188 45.0791 55.8047 44.1621C53.0108 41.3691 52.4883 37.2676 53.9219 33.834L40.0225 19.8564L3.15334 56.7607C0.0527574 59.8633 0.0722886 64.8906 3.17287 67.9912L57.0069 121.813C60.1055 124.913 65.1367 124.913 68.2403 121.813L121.814 68.2412C124.915 65.1396 124.918 60.1094 121.818 57.0098V57.0098Z" fill="#F34F29"/>
</svg>
