<svg width="126" height="126" viewBox="0 0 126 126" fill="none" xmlns="http://www.w3.org/2000/svg">
<path fill-rule="evenodd" clip-rule="evenodd" d="M62.9829 2.19312C40.0405 2.19312 21.4351 20.7937 21.4351 43.741C21.4351 62.0974 33.3394 77.6716 49.8481 83.1648C51.9243 83.5496 52.687 82.2634 52.687 81.1658C52.687 80.1755 52.6479 76.9021 52.6304 73.4314C41.0708 75.9441 38.6323 68.5291 38.6323 68.5291C36.7427 63.7263 34.019 62.449 34.019 62.449C30.2495 59.8708 34.3022 59.9236 34.3022 59.9236C38.4751 60.2165 40.6724 64.2058 40.6724 64.2058C44.3774 70.5574 50.3921 68.7205 52.7622 67.6589C53.1362 64.9734 54.2124 63.1394 55.4009 62.1023C46.1724 61.0525 36.4712 57.489 36.4712 41.5691C36.4712 37.033 38.0942 33.3269 40.7524 30.4167C40.3208 29.3699 38.8989 25.1433 41.1548 19.4207C41.1548 19.4207 44.6431 18.3054 52.5806 23.6814C55.896 22.7605 59.4507 22.2986 62.981 22.283C66.5122 22.2996 70.0688 22.7615 73.3892 23.6814C81.3188 18.3064 84.8032 19.4216 84.8032 19.4216C87.0649 25.1443 85.6431 29.3699 85.2114 30.4177C87.8755 33.3259 89.4868 37.033 89.4868 41.5701C89.4868 57.5271 79.7671 61.0408 70.5151 62.0681C72.0054 63.3572 73.3335 65.8865 73.3335 69.7634C73.3335 75.322 73.2866 79.7957 73.2866 81.1638C73.2866 82.2673 74.0347 83.5642 76.1401 83.156C92.6401 77.656 104.529 62.0876 104.529 43.7371C104.531 20.7947 85.9292 2.19312 62.9829 2.19312Z" fill="#181616"/>
<path d="M37.1723 61.8454C37.0796 62.0524 36.7544 62.1139 36.4594 61.9723C36.1567 61.8356 35.9887 61.5554 36.0864 61.3473C36.1743 61.1364 36.5005 61.0768 36.8022 61.2184C37.105 61.3552 37.2768 61.6384 37.1733 61.8454H37.1723ZM38.8549 63.7243C38.6567 63.9069 38.269 63.822 38.0053 63.5309C37.7339 63.2409 37.6831 62.8532 37.8842 62.6677C38.0874 62.4841 38.4633 62.57 38.7339 62.86C39.0073 63.153 39.061 63.5368 38.854 63.7233L38.8549 63.7243ZM40.4926 66.1149C40.2387 66.2927 39.8217 66.1266 39.5649 65.7565C39.3091 65.3884 39.3091 64.946 39.5698 64.7673C39.8276 64.5895 40.2378 64.7497 40.4975 65.1159C40.7534 65.4919 40.7534 65.9362 40.4926 66.1159V66.1149ZM42.7368 68.4274C42.5092 68.6784 42.0239 68.611 41.6694 68.2682C41.3061 67.9333 41.2055 67.4577 41.4331 67.2067C41.6645 66.9557 42.1518 67.0261 42.5092 67.3659C42.8706 67.6999 42.9799 68.1764 42.7368 68.4264V68.4274ZM45.8344 69.7692C45.7329 70.0954 45.2661 70.2429 44.7954 70.1052C44.3247 69.9626 44.018 69.5817 44.1118 69.2536C44.2094 68.9255 44.6801 68.7721 45.1538 68.9196C45.6225 69.0602 45.9301 69.4372 45.8335 69.7692H45.8344ZM49.2329 70.0182C49.2456 70.36 48.8462 70.6452 48.352 70.6511C47.8559 70.6628 47.4536 70.3854 47.4477 70.0475C47.4477 69.7018 47.8383 69.4206 48.3344 69.4128C48.8286 69.403 49.2329 69.6784 49.2329 70.0182ZM52.3969 69.4802C52.4555 69.8141 52.1137 70.1579 51.6225 70.2487C51.1401 70.3386 50.6948 70.1315 50.6323 69.7995C50.5737 69.4577 50.9223 69.1159 51.4038 69.0261C51.895 68.9401 52.3344 69.1413 52.3969 69.4811V69.4802Z" fill="#181616"/>
<path d="M24.7554 106.48H14.3062C14.1767 106.48 14.0525 106.532 13.9609 106.623C13.8693 106.715 13.8179 106.839 13.8179 106.969V112.078C13.8179 112.207 13.8693 112.332 13.9609 112.423C14.0525 112.515 14.1767 112.566 14.3062 112.566H18.3813V118.914C18.3813 118.914 17.4663 119.226 14.9341 119.226C11.9497 119.226 7.77881 118.136 7.77881 108.965C7.77881 99.7918 12.1226 98.5837 16.2007 98.5837C19.73 98.5837 21.2495 99.2048 22.2183 99.5046C22.521 99.5964 22.8042 99.2937 22.8042 99.0242L23.9692 94.0876C23.9711 94.0137 23.955 93.9405 23.9224 93.8741C23.8897 93.8078 23.8415 93.7504 23.7817 93.7068C23.3882 93.4255 20.9917 92.0857 14.936 92.0857C7.95947 92.0857 0.803223 95.0525 0.803223 109.322C0.803223 123.59 8.99658 125.716 15.9009 125.716C21.6177 125.716 25.0855 123.272 25.0855 123.272C25.228 123.194 25.2437 122.994 25.2437 122.901V106.968C25.2437 106.838 25.1922 106.714 25.1006 106.622C25.0091 106.531 24.8849 106.479 24.7554 106.479V106.48ZM78.1255 93.3044H72.2407C72.1765 93.3047 72.113 93.3176 72.0538 93.3425C71.9946 93.3673 71.9409 93.4036 71.8957 93.4492C71.8505 93.4948 71.8148 93.5489 71.7905 93.6084C71.7663 93.6678 71.754 93.7315 71.7544 93.7957L71.7563 105.167H62.5845V93.7957C62.5849 93.7315 62.5726 93.668 62.5484 93.6086C62.5243 93.5492 62.4886 93.4951 62.4435 93.4495C62.3985 93.4039 62.3449 93.3676 62.2858 93.3427C62.2267 93.3178 62.1632 93.3048 62.0991 93.3044H56.2153C56.1511 93.3047 56.0876 93.3176 56.0284 93.3425C55.9692 93.3673 55.9155 93.4036 55.8703 93.4492C55.8251 93.4948 55.7894 93.5489 55.7651 93.6084C55.7409 93.6678 55.7286 93.7315 55.729 93.7957V124.587C55.729 124.857 55.9478 125.078 56.2153 125.078H62.0991C62.1633 125.078 62.2268 125.064 62.286 125.04C62.3451 125.015 62.3988 124.978 62.4439 124.932C62.489 124.887 62.5246 124.833 62.5487 124.773C62.5728 124.714 62.585 124.65 62.5845 124.586V111.416H71.7563L71.7407 124.586C71.7407 124.857 71.9595 125.078 72.229 125.078H78.1255C78.1897 125.078 78.2532 125.064 78.3124 125.04C78.3715 125.015 78.4252 124.978 78.4702 124.932C78.5153 124.887 78.5509 124.833 78.5751 124.773C78.5992 124.714 78.6114 124.65 78.6108 124.586V93.7947C78.6115 93.7305 78.5994 93.6669 78.5753 93.6074C78.5512 93.548 78.5156 93.4939 78.4704 93.4483C78.4253 93.4027 78.3716 93.3665 78.3124 93.3419C78.2532 93.3172 78.1896 93.3044 78.1255 93.3044ZM32.0649 94.0046C29.9712 94.0046 28.272 95.7166 28.272 97.8357C28.272 99.9519 29.9712 101.669 32.0649 101.669C34.1606 101.669 35.8589 99.9519 35.8589 97.8357C35.8589 95.7166 34.1597 94.0046 32.0649 94.0046ZM34.9517 103.387H29.0864C28.8169 103.387 28.5767 103.665 28.5767 103.934V124.298C28.5767 124.896 28.9497 125.074 29.4321 125.074H34.7153C35.2964 125.074 35.438 124.789 35.438 124.288V103.879C35.4382 103.815 35.4259 103.751 35.4016 103.692C35.3773 103.632 35.3415 103.578 35.2964 103.533C35.2512 103.487 35.1975 103.451 35.1384 103.426C35.0792 103.402 35.0158 103.389 34.9517 103.388V103.387ZM100.973 103.433H95.1333C95.0692 103.434 95.0058 103.447 94.9467 103.472C94.8877 103.497 94.8342 103.533 94.7892 103.579C94.7442 103.625 94.7087 103.679 94.6846 103.738C94.6605 103.798 94.6484 103.861 94.6489 103.926V119.023C94.6489 119.023 93.1646 120.107 91.0601 120.107C88.9556 120.107 88.397 119.153 88.397 117.092V103.926C88.3975 103.861 88.3853 103.798 88.3612 103.738C88.3371 103.679 88.3015 103.624 88.2564 103.579C88.2113 103.533 88.1576 103.497 88.0985 103.472C88.0393 103.447 87.9758 103.434 87.9116 103.433H81.9858C81.8562 103.434 81.7322 103.487 81.641 103.579C81.5499 103.671 81.499 103.796 81.4995 103.926V118.088C81.4995 124.211 84.9126 125.709 89.6069 125.709C93.4585 125.709 96.564 123.58 96.564 123.58C96.564 123.58 96.7105 124.703 96.7788 124.835C96.8472 124.968 97.02 125.101 97.2085 125.101L100.978 125.085C101.042 125.084 101.106 125.072 101.165 125.047C101.225 125.022 101.279 124.985 101.324 124.94C101.369 124.894 101.405 124.84 101.43 124.78C101.454 124.721 101.467 124.657 101.466 124.593L101.463 103.923C101.463 103.793 101.411 103.669 101.32 103.577C101.229 103.485 101.105 103.433 100.975 103.432L100.973 103.433ZM116.932 102.742C113.616 102.742 111.36 104.221 111.36 104.221V93.7947C111.36 93.7306 111.348 93.667 111.324 93.6076C111.3 93.5482 111.264 93.4942 111.219 93.4486C111.174 93.4029 111.12 93.3667 111.061 93.3418C111.002 93.3169 110.939 93.3039 110.875 93.3035H104.975C104.911 93.3035 104.847 93.3162 104.788 93.3409C104.728 93.3656 104.674 93.4019 104.629 93.4475C104.583 93.4932 104.548 93.5473 104.523 93.6069C104.499 93.6665 104.486 93.7303 104.487 93.7947V124.586C104.486 124.65 104.499 124.714 104.523 124.773C104.548 124.833 104.583 124.887 104.629 124.933C104.674 124.979 104.728 125.015 104.788 125.039C104.847 125.064 104.911 125.077 104.975 125.077H109.069C109.254 125.077 109.393 124.982 109.496 124.815C109.596 124.649 109.744 123.395 109.744 123.395C109.744 123.395 112.156 125.68 116.724 125.68C122.085 125.68 125.162 122.962 125.162 113.471C125.162 103.981 120.25 102.741 116.931 102.741L116.932 102.742ZM114.627 120.09C112.603 120.028 111.229 119.109 111.229 119.109V109.358C111.229 109.358 112.584 108.528 114.247 108.378C116.349 108.189 118.375 108.825 118.375 113.841C118.375 119.131 117.462 120.175 114.628 120.089L114.627 120.09ZM52.4312 119.974C52.1743 119.974 51.5161 120.079 50.8394 120.079C48.6714 120.079 47.936 119.071 47.936 117.766V109.108H52.3501C52.4146 109.108 52.4784 109.095 52.5379 109.071C52.5974 109.046 52.6514 109.01 52.6968 108.964C52.7421 108.918 52.778 108.864 52.8023 108.804C52.8266 108.744 52.8389 108.68 52.8384 108.616V103.874C52.8386 103.809 52.8262 103.746 52.8018 103.686C52.7774 103.627 52.7414 103.573 52.6961 103.527C52.6507 103.482 52.5968 103.446 52.5374 103.421C52.478 103.396 52.4144 103.384 52.3501 103.384H47.936L47.9292 97.5535C47.9292 97.3318 47.8159 97.2214 47.5601 97.2214H41.5444C41.312 97.2214 41.186 97.325 41.186 97.5486V103.574C41.186 103.574 38.1714 104.302 37.9683 104.36C37.8668 104.39 37.7777 104.451 37.7144 104.536C37.651 104.62 37.6167 104.723 37.6167 104.829V108.615C37.6163 108.679 37.6286 108.743 37.6527 108.802C37.6769 108.861 37.7126 108.916 37.7576 108.961C37.8027 109.007 37.8563 109.043 37.9154 109.068C37.9745 109.093 38.0379 109.106 38.1021 109.106H41.186V118.216C41.186 124.983 45.9321 125.647 49.1353 125.647C50.5972 125.647 52.3481 125.178 52.6372 125.071C52.813 125.006 52.9136 124.825 52.9136 124.629L52.9175 120.464C52.9155 120.335 52.8635 120.211 52.7724 120.12C52.6813 120.028 52.5583 119.976 52.4292 119.973L52.4312 119.974Z" fill="#100E0F"/>
<path fill-rule="evenodd" clip-rule="evenodd" d="M62.9829 2.19312C40.0405 2.19312 21.4351 20.7937 21.4351 43.741C21.4351 62.0974 33.3394 77.6716 49.8481 83.1648C51.9243 83.5496 52.687 82.2634 52.687 81.1658C52.687 80.1755 52.6479 76.9021 52.6304 73.4314C41.0708 75.9441 38.6323 68.5291 38.6323 68.5291C36.7427 63.7263 34.019 62.449 34.019 62.449C30.2495 59.8708 34.3022 59.9236 34.3022 59.9236C38.4751 60.2165 40.6724 64.2058 40.6724 64.2058C44.3774 70.5574 50.3921 68.7205 52.7622 67.6589C53.1362 64.9734 54.2124 63.1394 55.4009 62.1023C46.1724 61.0525 36.4712 57.489 36.4712 41.5691C36.4712 37.033 38.0942 33.3269 40.7524 30.4167C40.3208 29.3699 38.8989 25.1433 41.1548 19.4207C41.1548 19.4207 44.6431 18.3054 52.5806 23.6814C55.896 22.7605 59.4507 22.2986 62.981 22.283C66.5122 22.2996 70.0688 22.7615 73.3892 23.6814C81.3188 18.3064 84.8032 19.4216 84.8032 19.4216C87.0649 25.1443 85.6431 29.3699 85.2114 30.4177C87.8755 33.3259 89.4868 37.033 89.4868 41.5701C89.4868 57.5271 79.7671 61.0408 70.5151 62.0681C72.0054 63.3572 73.3335 65.8865 73.3335 69.7634C73.3335 75.322 73.2866 79.7957 73.2866 81.1638C73.2866 82.2673 74.0347 83.5642 76.1401 83.156C92.6401 77.656 104.529 62.0876 104.529 43.7371C104.531 20.7947 85.9292 2.19312 62.9829 2.19312Z" fill="white"/>
<path d="M37.1723 61.8454C37.0796 62.0524 36.7544 62.1139 36.4594 61.9723C36.1567 61.8356 35.9887 61.5554 36.0864 61.3473C36.1743 61.1364 36.5005 61.0768 36.8022 61.2184C37.105 61.3552 37.2768 61.6384 37.1733 61.8454H37.1723ZM38.8549 63.7243C38.6567 63.9069 38.269 63.822 38.0053 63.5309C37.7339 63.2409 37.6831 62.8532 37.8842 62.6677C38.0874 62.4841 38.4633 62.57 38.7339 62.86C39.0073 63.153 39.061 63.5368 38.854 63.7233L38.8549 63.7243ZM40.4926 66.1149C40.2387 66.2927 39.8217 66.1266 39.5649 65.7565C39.3091 65.3884 39.3091 64.946 39.5698 64.7673C39.8276 64.5895 40.2378 64.7497 40.4975 65.1159C40.7534 65.4919 40.7534 65.9362 40.4926 66.1159V66.1149ZM42.7368 68.4274C42.5092 68.6784 42.0239 68.611 41.6694 68.2682C41.3061 67.9333 41.2055 67.4577 41.4331 67.2067C41.6645 66.9557 42.1518 67.0261 42.5092 67.3659C42.8706 67.6999 42.9799 68.1764 42.7368 68.4264V68.4274ZM45.8344 69.7692C45.7329 70.0954 45.2661 70.2429 44.7954 70.1052C44.3247 69.9626 44.018 69.5817 44.1118 69.2536C44.2094 68.9255 44.6801 68.7721 45.1538 68.9196C45.6225 69.0602 45.9301 69.4372 45.8335 69.7692H45.8344ZM49.2329 70.0182C49.2456 70.36 48.8462 70.6452 48.352 70.6511C47.8559 70.6628 47.4536 70.3854 47.4477 70.0475C47.4477 69.7018 47.8383 69.4206 48.3344 69.4128C48.8286 69.403 49.2329 69.6784 49.2329 70.0182ZM52.3969 69.4802C52.4555 69.8141 52.1137 70.1579 51.6225 70.2487C51.1401 70.3386 50.6948 70.1315 50.6323 69.7995C50.5737 69.4577 50.9223 69.1159 51.4038 69.0261C51.895 68.9401 52.3344 69.1413 52.3969 69.4811V69.4802Z" fill="white"/>
<path d="M24.7554 106.48H14.3062C14.1767 106.48 14.0525 106.532 13.9609 106.623C13.8693 106.715 13.8179 106.839 13.8179 106.969V112.078C13.8179 112.207 13.8693 112.332 13.9609 112.423C14.0525 112.515 14.1767 112.566 14.3062 112.566H18.3813V118.914C18.3813 118.914 17.4663 119.226 14.9341 119.226C11.9497 119.226 7.77881 118.136 7.77881 108.965C7.77881 99.7918 12.1226 98.5837 16.2007 98.5837C19.73 98.5837 21.2495 99.2048 22.2183 99.5046C22.521 99.5964 22.8042 99.2937 22.8042 99.0242L23.9692 94.0876C23.9711 94.0137 23.955 93.9405 23.9224 93.8741C23.8897 93.8078 23.8415 93.7504 23.7817 93.7068C23.3882 93.4255 20.9917 92.0857 14.936 92.0857C7.95947 92.0857 0.803223 95.0525 0.803223 109.322C0.803223 123.59 8.99658 125.716 15.9009 125.716C21.6177 125.716 25.0855 123.272 25.0855 123.272C25.228 123.194 25.2437 122.994 25.2437 122.901V106.968C25.2437 106.838 25.1922 106.714 25.1006 106.622C25.0091 106.531 24.8849 106.479 24.7554 106.479V106.48ZM78.1255 93.3044H72.2407C72.1765 93.3047 72.113 93.3176 72.0538 93.3425C71.9946 93.3673 71.9409 93.4036 71.8957 93.4492C71.8505 93.4948 71.8148 93.5489 71.7905 93.6084C71.7663 93.6678 71.754 93.7315 71.7544 93.7957L71.7563 105.167H62.5845V93.7957C62.5849 93.7315 62.5726 93.668 62.5484 93.6086C62.5243 93.5492 62.4886 93.4951 62.4435 93.4495C62.3985 93.4039 62.3449 93.3676 62.2858 93.3427C62.2267 93.3178 62.1632 93.3048 62.0991 93.3044H56.2153C56.1511 93.3047 56.0876 93.3176 56.0284 93.3425C55.9692 93.3673 55.9155 93.4036 55.8703 93.4492C55.8251 93.4948 55.7894 93.5489 55.7651 93.6084C55.7409 93.6678 55.7286 93.7315 55.729 93.7957V124.587C55.729 124.857 55.9478 125.078 56.2153 125.078H62.0991C62.1633 125.078 62.2268 125.064 62.286 125.04C62.3451 125.015 62.3988 124.978 62.4439 124.932C62.489 124.887 62.5246 124.833 62.5487 124.773C62.5728 124.714 62.585 124.65 62.5845 124.586V111.416H71.7563L71.7407 124.586C71.7407 124.857 71.9595 125.078 72.229 125.078H78.1255C78.1897 125.078 78.2532 125.064 78.3124 125.04C78.3715 125.015 78.4252 124.978 78.4702 124.932C78.5153 124.887 78.5509 124.833 78.5751 124.773C78.5992 124.714 78.6114 124.65 78.6108 124.586V93.7947C78.6115 93.7305 78.5994 93.6669 78.5753 93.6074C78.5512 93.548 78.5156 93.4939 78.4704 93.4483C78.4253 93.4027 78.3716 93.3665 78.3124 93.3419C78.2532 93.3172 78.1896 93.3044 78.1255 93.3044ZM32.0649 94.0046C29.9712 94.0046 28.272 95.7166 28.272 97.8357C28.272 99.9519 29.9712 101.669 32.0649 101.669C34.1606 101.669 35.8589 99.9519 35.8589 97.8357C35.8589 95.7166 34.1597 94.0046 32.0649 94.0046ZM34.9517 103.387H29.0864C28.8169 103.387 28.5767 103.665 28.5767 103.934V124.298C28.5767 124.896 28.9497 125.074 29.4321 125.074H34.7153C35.2964 125.074 35.438 124.789 35.438 124.288V103.879C35.4382 103.815 35.4259 103.751 35.4016 103.692C35.3773 103.632 35.3415 103.578 35.2964 103.533C35.2512 103.487 35.1975 103.451 35.1384 103.426C35.0792 103.402 35.0158 103.389 34.9517 103.388V103.387ZM100.973 103.433H95.1333C95.0692 103.434 95.0058 103.447 94.9467 103.472C94.8877 103.497 94.8342 103.533 94.7892 103.579C94.7442 103.625 94.7087 103.679 94.6846 103.738C94.6605 103.798 94.6484 103.861 94.6489 103.926V119.023C94.6489 119.023 93.1646 120.107 91.0601 120.107C88.9556 120.107 88.397 119.153 88.397 117.092V103.926C88.3975 103.861 88.3853 103.798 88.3612 103.738C88.3371 103.679 88.3015 103.624 88.2564 103.579C88.2113 103.533 88.1576 103.497 88.0985 103.472C88.0393 103.447 87.9758 103.434 87.9116 103.433H81.9858C81.8562 103.434 81.7322 103.487 81.641 103.579C81.5499 103.671 81.499 103.796 81.4995 103.926V118.088C81.4995 124.211 84.9126 125.709 89.6069 125.709C93.4585 125.709 96.564 123.58 96.564 123.58C96.564 123.58 96.7105 124.703 96.7788 124.835C96.8472 124.968 97.02 125.101 97.2085 125.101L100.978 125.085C101.042 125.084 101.106 125.072 101.165 125.047C101.225 125.022 101.279 124.985 101.324 124.94C101.369 124.894 101.405 124.84 101.43 124.78C101.454 124.721 101.467 124.657 101.466 124.593L101.463 103.923C101.463 103.793 101.411 103.669 101.32 103.577C101.229 103.485 101.105 103.433 100.975 103.432L100.973 103.433ZM116.932 102.742C113.616 102.742 111.36 104.221 111.36 104.221V93.7947C111.36 93.7306 111.348 93.667 111.324 93.6076C111.3 93.5482 111.264 93.4942 111.219 93.4486C111.174 93.4029 111.12 93.3667 111.061 93.3418C111.002 93.3169 110.939 93.3039 110.875 93.3035H104.975C104.911 93.3035 104.847 93.3162 104.788 93.3409C104.728 93.3656 104.674 93.4019 104.629 93.4475C104.583 93.4932 104.548 93.5473 104.523 93.6069C104.499 93.6665 104.486 93.7303 104.487 93.7947V124.586C104.486 124.65 104.499 124.714 104.523 124.773C104.548 124.833 104.583 124.887 104.629 124.933C104.674 124.979 104.728 125.015 104.788 125.039C104.847 125.064 104.911 125.077 104.975 125.077H109.069C109.254 125.077 109.393 124.982 109.496 124.815C109.596 124.649 109.744 123.395 109.744 123.395C109.744 123.395 112.156 125.68 116.724 125.68C122.085 125.68 125.162 122.962 125.162 113.471C125.162 103.981 120.25 102.741 116.931 102.741L116.932 102.742ZM114.627 120.09C112.603 120.028 111.229 119.109 111.229 119.109V109.358C111.229 109.358 112.584 108.528 114.247 108.378C116.349 108.189 118.375 108.825 118.375 113.841C118.375 119.131 117.462 120.175 114.628 120.089L114.627 120.09ZM52.4312 119.974C52.1743 119.974 51.5161 120.079 50.8394 120.079C48.6714 120.079 47.936 119.071 47.936 117.766V109.108H52.3501C52.4146 109.108 52.4784 109.095 52.5379 109.071C52.5974 109.046 52.6514 109.01 52.6968 108.964C52.7421 108.918 52.778 108.864 52.8023 108.804C52.8266 108.744 52.8389 108.68 52.8384 108.616V103.874C52.8386 103.809 52.8262 103.746 52.8018 103.686C52.7774 103.627 52.7414 103.573 52.6961 103.527C52.6507 103.482 52.5968 103.446 52.5374 103.421C52.478 103.396 52.4144 103.384 52.3501 103.384H47.936L47.9292 97.5535C47.9292 97.3318 47.8159 97.2214 47.5601 97.2214H41.5444C41.312 97.2214 41.186 97.325 41.186 97.5486V103.574C41.186 103.574 38.1714 104.302 37.9683 104.36C37.8668 104.39 37.7777 104.451 37.7144 104.536C37.651 104.62 37.6167 104.723 37.6167 104.829V108.615C37.6163 108.679 37.6286 108.743 37.6527 108.802C37.6769 108.861 37.7126 108.916 37.7576 108.961C37.8027 109.007 37.8563 109.043 37.9154 109.068C37.9745 109.093 38.0379 109.106 38.1021 109.106H41.186V118.216C41.186 124.983 45.9321 125.647 49.1353 125.647C50.5972 125.647 52.3481 125.178 52.6372 125.071C52.813 125.006 52.9136 124.825 52.9136 124.629L52.9175 120.464C52.9155 120.335 52.8635 120.211 52.7724 120.12C52.6813 120.028 52.5583 119.976 52.4292 119.973L52.4312 119.974Z" fill="white"/>
</svg>
