<svg width="125" height="125" viewBox="0 0 125 125" fill="none" xmlns="http://www.w3.org/2000/svg">
<path d="M107.185 48.5986L102.165 33.1494L92.2169 2.53516C91.7061 0.958984 89.4776 0.958984 88.9649 2.53516L79.0167 33.1504H45.9835L36.0352 2.53516C35.5235 0.958984 33.295 0.958984 32.7833 2.53516L22.835 33.1504L17.8155 48.5996C17.5924 49.2864 17.5924 50.0262 17.8156 50.713C18.0387 51.3998 18.4735 51.9983 19.0577 52.4228L62.5001 83.9844L105.942 52.4219C106.527 51.9974 106.961 51.3988 107.185 50.712C107.408 50.0252 107.408 49.2854 107.185 48.5986" fill="#FC6D26"/>
<path d="M62.5 83.9844L79.0166 33.1504H45.9834L62.5 83.9844Z" fill="#E24329"/>
<path d="M62.5 83.9844L45.9834 33.1504H22.835L62.5 83.9844Z" fill="#FC6D26"/>
<path d="M22.835 33.1504L17.8155 48.5996C17.5926 49.2863 17.5928 50.0259 17.8159 50.7125C18.039 51.3991 18.4737 51.9974 19.0577 52.4219L62.5001 83.9844L22.835 33.1504Z" fill="#FCA326"/>
<path d="M22.835 33.1504H45.9834L36.0352 2.5332C35.5234 0.958008 33.2949 0.958008 32.7832 2.5332L22.835 33.1504Z" fill="#E24329"/>
<path d="M62.5 83.9844L79.0166 33.1504H102.165L62.5 83.9844Z" fill="#FC6D26"/>
<path d="M102.165 33.1504L107.185 48.5996C107.407 49.2863 107.407 50.0259 107.184 50.7125C106.961 51.3991 106.526 51.9974 105.942 52.4219L62.5 83.9844L102.165 33.1504V33.1504Z" fill="#FCA326"/>
<path d="M102.165 33.1504H79.0166L88.9648 2.5332C89.4766 0.958008 91.7051 0.958008 92.2168 2.5332L102.165 33.1504V33.1504Z" fill="#E24329"/>
<path d="M63.8545 91.7803H59.4697L59.4844 124.402H77.2188V120.369H63.8672L63.8525 91.7803H63.8545ZM94.1045 118.675C93.4022 119.405 92.5586 119.985 91.6252 120.378C90.6917 120.772 89.6879 120.972 88.6748 120.966C85.3369 120.966 83.9922 119.321 83.9922 117.18C83.9922 113.942 86.2334 112.398 91.0156 112.398C91.9121 112.398 93.3564 112.498 94.1035 112.647V118.673L94.1045 118.675ZM89.5713 98.9023C86.0322 98.9023 82.7842 100.157 80.252 102.245L81.8018 104.928C83.5947 103.883 85.7861 102.836 88.9248 102.836C92.5117 102.836 94.1055 104.679 94.1055 107.768V109.359C93.4082 109.211 91.9639 109.111 91.0684 109.111C83.3955 109.111 79.5107 111.802 79.5107 117.43C79.5107 122.459 82.5986 125 87.2813 125C90.4355 125 93.458 123.555 94.5039 121.215L95.3018 124.402H98.3906V107.718C98.3906 102.438 96.0986 98.9023 89.5723 98.9023H89.5713ZM112.533 121.115C110.89 121.115 109.444 120.916 108.349 120.418V105.328C109.843 104.083 111.686 103.187 114.026 103.187C118.261 103.187 119.905 106.175 119.905 111.006C119.905 117.878 117.265 121.115 112.532 121.115M114.374 98.9023C110.456 98.9023 108.349 101.568 108.349 101.568V97.3594L108.334 91.7803H104.051L104.064 123.606C106.206 124.502 109.146 125 112.333 125C120.501 125 124.437 119.771 124.437 110.756C124.437 103.634 120.801 98.9023 114.374 98.9023M16.2031 95.3164C20.0898 95.3164 22.5801 96.6113 24.2227 97.9062L26.1074 94.6445C23.5391 92.3926 20.085 91.1826 16.4004 91.1826C7.08594 91.1826 0.560547 96.8613 0.560547 108.316C0.560547 120.317 7.60156 125 15.6543 125C19.6895 125 23.127 124.053 25.3682 123.107L25.2764 110.283V106.25H13.3203V110.283H20.9424L21.0342 120.02C20.0381 120.518 18.2939 120.916 15.9521 120.916C9.47754 120.916 5.1416 116.844 5.1416 108.266C5.14355 99.5498 9.62695 95.3164 16.2021 95.3164M47.0312 91.7803H42.7471L42.7607 97.2588V116.184C42.7607 121.464 45.0527 125 51.5791 125C52.4795 125 53.3613 124.918 54.2178 124.763V120.915C53.5585 121.016 52.8925 121.066 52.2256 121.065C48.6377 121.065 47.0439 119.224 47.0439 116.136V103.086H54.2168V99.5H47.043L47.0293 91.7803H47.0312ZM31.877 124.402H36.1611V99.5H31.875V124.402H31.877ZM31.877 96.0645H36.1611V91.7803H31.875V96.0635L31.877 96.0645Z" fill="#5C5C5C"/>
</svg>
