<svg width="125" height="125" viewBox="0 0 125 125" fill="none" xmlns="http://www.w3.org/2000/svg">
<path d="M20.8094 52.4865C23.9264 51.1949 24.1666 48.318 24.1666 47.4641C24.1666 46.6101 23.9264 43.7332 20.8147 42.4416C19.2456 41.7958 18.0233 40.5735 17.3722 39.0043C16.721 37.4352 16.721 35.7112 17.3722 34.142L21.5086 24.1505C22.8536 20.9161 26.5738 19.3736 29.8135 20.7132C32.9305 22.0049 35.1349 20.1368 35.7327 19.5337C36.3358 18.9306 38.1985 16.7262 36.9122 13.6092C36.2611 12.04 36.2611 10.3161 36.9122 8.74689C37.5634 7.1777 38.7856 5.95545 40.3495 5.30963L50.341 1.17318C53.5754 -0.166493 57.3009 1.376 58.6406 4.61044C59.9322 7.72212 62.809 7.9623 63.6577 7.9623C64.5063 7.9623 67.3885 7.72212 68.6801 4.61044C69.3313 3.04126 70.5482 1.819 72.1174 1.17318C73.6866 0.522025 75.4105 0.522025 76.9797 1.17318L86.9659 5.30963C88.5351 5.96079 89.7573 7.1777 90.4032 8.74689C91.049 10.3161 91.0543 12.04 90.4032 13.6092C89.1115 16.7209 90.9796 18.9306 91.5827 19.5337C92.1858 20.1368 94.3902 22.0049 97.5018 20.7132C99.071 20.0621 100.795 20.0621 102.364 20.7132C103.933 21.3644 105.156 22.5866 105.801 24.1505L109.938 34.1367C110.589 35.7059 110.589 37.4298 109.938 38.999C109.287 40.5682 108.064 41.7904 106.501 42.4363C103.389 43.7226 103.149 46.6047 103.149 47.4587C103.149 48.3127 103.389 51.1895 106.506 52.4812C109.74 53.8208 111.283 57.5463 109.943 60.7807L105.807 70.7723C105.156 72.3415 103.933 73.5637 102.37 74.2095C100.8 74.8607 99.0764 74.8607 97.5072 74.2095C94.3955 72.9232 92.1858 74.786 91.5827 75.3891C90.9796 75.9922 89.1169 78.1965 90.4032 81.3135C91.7428 84.548 90.2003 88.2735 86.9659 89.6185L76.9744 93.7549C76.1898 94.0805 75.3678 94.2406 74.5405 94.2406C73.7186 94.2406 72.8913 94.0805 72.1067 93.7549C70.5375 93.1038 69.3153 91.8815 68.6695 90.3177C67.3778 87.206 64.501 86.9658 63.647 86.9658C62.793 86.9658 59.9162 87.206 58.6246 90.323C57.2849 93.5574 53.5594 95.0946 50.325 93.7603L40.3335 89.6238C37.099 88.2841 35.5565 84.5587 36.8962 81.3242C38.1878 78.2125 36.3198 76.0029 35.7166 75.3998C35.1135 74.7966 32.9092 72.9286 29.7922 74.2202C26.5577 75.5545 22.8323 74.0174 21.4926 70.783L17.3722 60.7861C16.0325 57.5517 17.575 53.8262 20.8094 52.4865Z" fill="#65B1EF"/>
<path d="M32.6244 107.313C33.3901 107.313 34.0116 106.693 34.0116 105.926C34.0116 105.159 33.3901 104.539 32.6244 104.539H24.0957C23.33 104.539 22.7085 105.159 22.7085 105.926V122.786C22.7085 123.553 23.33 124.173 24.0957 124.173H32.6244C33.3901 124.173 34.0116 123.553 34.0116 122.786C34.0116 122.019 33.3901 121.399 32.6244 121.399H25.4842V115.743H30.0395C30.8051 115.743 31.4266 115.123 31.4266 114.356C31.4266 113.589 30.8051 112.969 30.0395 112.969H25.4842V107.315L32.6244 107.313Z" fill="#65B1EF"/>
<path d="M12.37 104.539H6.56612C5.8005 104.539 5.17896 105.159 5.17896 105.926V114.355V122.785C5.17896 123.553 5.79913 124.173 6.56612 124.173C7.33311 124.173 7.95328 123.553 7.95328 122.786V115.743H12.37C13.3826 115.743 14.2058 116.566 14.2058 117.579V122.786C14.2058 123.553 14.8274 124.173 15.593 124.173C16.3586 124.173 16.9801 123.553 16.9801 122.786V117.579C16.9801 116.325 16.4738 115.187 15.6575 114.356C16.4738 113.523 16.9801 112.387 16.9801 111.133V109.149C16.9815 106.608 14.9124 104.539 12.37 104.539ZM7.95328 112.967V107.313H12.37C13.3826 107.313 14.2058 108.136 14.2058 109.149V111.132C14.2058 112.144 13.3826 112.967 12.37 112.967H7.95328Z" fill="#65B1EF"/>
<path d="M66.1167 104.539H55.4804C54.7148 104.539 54.0933 105.159 54.0933 105.926C54.0933 106.693 54.7148 107.313 55.4804 107.313H59.4114V122.786C59.4114 123.553 60.033 124.173 60.7986 124.173C61.5642 124.173 62.1857 123.553 62.1857 122.786V107.313H66.1153C66.8823 107.313 67.5025 106.693 67.5025 105.926C67.5025 105.159 66.8837 104.539 66.1167 104.539Z" fill="#65B1EF"/>
<path d="M43.2977 107.313H44.8619C45.9746 107.313 46.8802 108.16 46.8802 109.201C46.8802 109.968 47.5018 110.588 48.2674 110.588C49.033 110.588 49.6545 109.968 49.6545 109.201C49.6545 106.631 47.5045 104.539 44.8619 104.539H43.2977C40.555 104.539 38.324 106.708 38.324 109.375V110.908C38.324 113.574 40.555 115.745 43.2977 115.745H44.6808C45.8937 115.745 46.8802 116.669 46.8802 117.807V119.338C46.8802 120.475 45.8937 121.4 44.6808 121.4H43.1166C42.0039 121.4 41.0983 120.554 41.0983 119.512C41.0983 118.745 40.4768 118.125 39.7111 118.125C38.9455 118.125 38.324 118.745 38.324 119.512C38.324 122.082 40.474 124.175 43.118 124.175H44.6821C47.4249 124.175 49.6559 122.005 49.6559 119.338V117.807C49.6559 115.139 47.4249 112.97 44.6821 112.97H43.2991C42.0862 112.97 41.0997 112.045 41.0997 110.909V109.377C41.0983 108.238 42.0848 107.313 43.2977 107.313Z" fill="#65B1EF"/>
<path d="M88.2661 104.539H85.0705C82.3003 104.539 80.0474 106.792 80.0474 109.562V122.786C80.0474 123.553 80.6675 124.173 81.4345 124.173C82.2015 124.173 82.8217 123.553 82.8217 122.786V115.743H90.5121V122.786C90.5121 123.553 91.1323 124.173 91.8993 124.173C92.6663 124.173 93.2865 123.553 93.2865 122.786V109.561C93.2892 106.792 91.0363 104.539 88.2661 104.539ZM82.8231 112.967V109.561C82.8231 108.32 83.8315 107.313 85.0705 107.313H88.2661C89.5064 107.313 90.5135 108.322 90.5135 109.561V112.967H82.8231Z" fill="#65B1EF"/>
<path d="M118.294 104.539C117.527 104.539 116.907 105.159 116.907 105.926V122.786C116.907 123.553 117.527 124.173 118.294 124.173C119.061 124.173 119.681 123.553 119.681 122.786V105.926C119.681 105.159 119.061 104.539 118.294 104.539Z" fill="#65B1EF"/>
<path d="M106.997 104.539H100.826C100.059 104.539 99.4387 105.159 99.4387 105.926V115.382V122.786C99.4387 123.553 100.059 124.173 100.826 124.173C101.593 124.173 102.213 123.553 102.213 122.786V116.769H106.997C109.574 116.769 111.671 114.673 111.671 112.098V109.211C111.671 106.634 109.574 104.539 106.997 104.539ZM108.896 112.098C108.896 113.143 108.046 113.995 106.997 113.995H102.213V107.313H106.997C108.044 107.313 108.896 108.164 108.896 109.211V112.098Z" fill="#65B1EF"/>
<path d="M82.0258 44.0167C81.879 42.48 81.5045 41.0092 80.935 39.6398C78.6437 34.1227 73.2048 30.2439 66.8576 30.2439C63.8967 30.2439 61.1347 31.0877 58.7967 32.549C55.184 34.8074 52.5867 38.5381 51.8403 42.8999H50.1033C44.0881 42.8999 39.2131 47.7762 39.2131 53.79C39.2131 59.8051 44.0895 64.6801 50.1033 64.6801H77.2222C83.2374 64.6801 88.1123 59.8038 88.1123 53.79C88.1123 49.5009 85.6316 45.7922 82.0258 44.0167Z" fill="white"/>
</svg>
