<svg width="95" height="127" viewBox="0 0 95 127" fill="none" xmlns="http://www.w3.org/2000/svg">
<path d="M94.2578 11.9804C94.2578 5.77348 89.2265 0.742188 83.0196 0.742188H11.9804C5.77348 0.742188 0.742188 5.77348 0.742188 11.9804V83.0189C0.742188 89.2265 5.77348 94.2578 11.9804 94.2578H83.0196C89.2265 94.2578 94.2578 89.2265 94.2578 83.0189V11.9804V11.9804ZM43.0469 73.8773C43.0469 76.7029 40.608 78.6719 37.7825 78.6719H17.4882C14.6627 78.6719 12.6172 76.7029 12.6172 73.8773V17.241C12.6172 14.4148 14.6627 11.875 17.4882 11.875H37.7825C40.608 11.875 43.0469 14.4148 43.0469 17.241V73.8773ZM83.8672 24.5545V48.2199C83.8672 51.0454 81.6881 53.4375 78.8619 53.4375H58.5779C55.7516 53.4375 53.4375 51.0447 53.4375 48.2199V16.9709C53.4375 14.1446 55.7516 11.875 58.5779 11.875H78.8619C81.6881 11.875 83.8672 14.1446 83.8672 16.9709V24.5545Z" fill="#23719F"/>
<path d="M24.86 109.92C23.66 109.227 22.3733 108.78 21 108.58V120H17.76V108.58C16.3867 108.78 15.0933 109.227 13.88 109.92L12.78 107.5C13.74 106.927 14.78 106.493 15.9 106.2C17.02 105.907 18.1733 105.76 19.36 105.76C20.56 105.76 21.72 105.907 22.84 106.2C23.9733 106.493 25.0133 106.927 25.96 107.5L24.86 109.92ZM36.3339 120L33.6339 116.1H33.4739H30.6539V120H27.4139V106H33.4739C34.7139 106 35.7872 106.207 36.6939 106.62C37.6139 107.033 38.3206 107.62 38.8139 108.38C39.3072 109.14 39.5539 110.04 39.5539 111.08C39.5539 112.12 39.3006 113.02 38.7939 113.78C38.3006 114.527 37.5939 115.1 36.6739 115.5L39.8139 120H36.3339ZM36.2739 111.08C36.2739 110.293 36.0206 109.693 35.5139 109.28C35.0072 108.853 34.2672 108.64 33.2939 108.64H30.6539V113.52H33.2939C34.2672 113.52 35.0072 113.307 35.5139 112.88C36.0206 112.453 36.2739 111.853 36.2739 111.08ZM47.3209 117.66C47.8809 117.66 48.3743 117.58 48.8009 117.42C49.2409 117.247 49.6476 116.98 50.0209 116.62L51.6809 118.42C50.6676 119.58 49.1876 120.16 47.2409 120.16C46.0276 120.16 44.9543 119.927 44.0209 119.46C43.0876 118.98 42.3676 118.32 41.8609 117.48C41.3543 116.64 41.1009 115.687 41.1009 114.62C41.1009 113.567 41.3476 112.62 41.8409 111.78C42.3476 110.927 43.0343 110.267 43.9009 109.8C44.7809 109.32 45.7676 109.08 46.8609 109.08C47.8876 109.08 48.8209 109.3 49.6609 109.74C50.5009 110.167 51.1676 110.793 51.6609 111.62C52.1676 112.433 52.4209 113.4 52.4209 114.52L44.4609 116.06C44.6876 116.593 45.0409 116.993 45.5209 117.26C46.0143 117.527 46.6143 117.66 47.3209 117.66ZM46.8609 111.44C46.0743 111.44 45.4343 111.693 44.9409 112.2C44.4476 112.707 44.1876 113.407 44.1609 114.3L49.4009 113.28C49.2543 112.72 48.9543 112.273 48.5009 111.94C48.0476 111.607 47.5009 111.44 46.8609 111.44ZM58.3781 120.16C57.1648 120.16 56.2181 119.84 55.5381 119.2C54.8581 118.547 54.5181 117.627 54.5181 116.44V105.16H57.6381V116.26C57.6381 116.713 57.7515 117.067 57.9781 117.32C58.2181 117.56 58.5515 117.68 58.9781 117.68C59.1381 117.68 59.2981 117.66 59.4581 117.62C59.6315 117.58 59.7648 117.533 59.8581 117.48L59.9981 119.9C59.4781 120.073 58.9381 120.16 58.3781 120.16ZM65.3898 120.16C64.1765 120.16 63.2298 119.84 62.5498 119.2C61.8698 118.547 61.5298 117.627 61.5298 116.44V105.16H64.6498V116.26C64.6498 116.713 64.7632 117.067 64.9898 117.32C65.2298 117.56 65.5632 117.68 65.9898 117.68C66.1498 117.68 66.3098 117.66 66.4698 117.62C66.6432 117.58 66.7765 117.533 66.8698 117.48L67.0098 119.9C66.4898 120.073 65.9498 120.16 65.3898 120.16ZM73.4663 120.16C72.3329 120.16 71.3129 119.927 70.4063 119.46C69.5129 118.98 68.8129 118.32 68.3063 117.48C67.7996 116.64 67.5463 115.687 67.5463 114.62C67.5463 113.553 67.7996 112.6 68.3063 111.76C68.8129 110.92 69.5129 110.267 70.4063 109.8C71.3129 109.32 72.3329 109.08 73.4663 109.08C74.5996 109.08 75.6129 109.32 76.5063 109.8C77.3996 110.267 78.0996 110.92 78.6063 111.76C79.1129 112.6 79.3663 113.553 79.3663 114.62C79.3663 115.687 79.1129 116.64 78.6063 117.48C78.0996 118.32 77.3996 118.98 76.5063 119.46C75.6129 119.927 74.5996 120.16 73.4663 120.16ZM73.4663 117.6C74.2663 117.6 74.9196 117.333 75.4263 116.8C75.9463 116.253 76.2063 115.527 76.2063 114.62C76.2063 113.713 75.9463 112.993 75.4263 112.46C74.9196 111.913 74.2663 111.64 73.4663 111.64C72.6663 111.64 72.0063 111.913 71.4863 112.46C70.9663 112.993 70.7063 113.713 70.7063 114.62C70.7063 115.527 70.9663 116.253 71.4863 116.8C72.0063 117.333 72.6663 117.6 73.4663 117.6Z" fill="#23719F"/>
</svg>
