<svg width="150" height="150" viewBox="0 0 150 150" fill="none" xmlns="http://www.w3.org/2000/svg">
<path d="M17.8259 18.0338C17.5494 10.082 23.7439 2.74976 32.1181 2.74976H117.925C126.299 2.74976 132.494 10.082 132.218 18.0338C131.951 25.6717 132.297 35.5663 134.787 43.6336C137.285 51.7266 141.497 56.8407 148.396 57.4988V64.9512C141.497 65.6081 137.285 70.7234 134.787 78.8164C132.297 86.8837 131.951 96.7782 132.218 104.416C132.494 112.368 126.299 119.699 117.925 119.699H32.1181C23.7439 119.699 17.5494 112.367 17.8259 104.416C18.0919 96.7782 17.7466 86.8837 15.2554 78.8164C12.7584 70.7245 8.5346 65.6093 1.63525 64.9512V57.4988C8.5346 56.8419 12.7584 51.7266 15.2554 43.6336C17.7466 35.5663 18.0908 25.6717 17.8259 18.0338Z" fill="url(#paint0_linear_16_44)"/>
<g filter="url(#filter0_d_16_44)">
<path d="M78.6456 92.7379C92.2028 92.7379 100.372 86.0999 100.372 75.1512C100.372 66.8751 94.5432 60.8835 85.8878 59.935V59.5902C92.2469 58.5557 97.237 52.6504 97.237 46.0554C97.237 36.6585 89.8182 30.5374 78.5132 30.5374H53.0769V92.7379H78.6456ZM62.9688 38.4256H76.1286C83.2826 38.4256 87.3451 41.6154 87.3451 47.3914C87.3451 53.5556 82.6201 57.0038 74.0531 57.0038H62.9688V38.4256ZM62.9688 84.8496V64.3747H76.0401C85.402 64.3747 90.2596 67.823 90.2596 74.5475C90.2596 81.2718 85.5347 84.8496 76.6142 84.8496H62.9688Z" fill="url(#paint1_linear_16_44)"/>
<path d="M78.6456 92.7379C92.2028 92.7379 100.372 86.0999 100.372 75.1512C100.372 66.8751 94.5432 60.8835 85.8878 59.935V59.5902C92.2469 58.5557 97.237 52.6504 97.237 46.0554C97.237 36.6585 89.8182 30.5374 78.5132 30.5374H53.0769V92.7379H78.6456ZM62.9688 38.4256H76.1286C83.2826 38.4256 87.3451 41.6154 87.3451 47.3914C87.3451 53.5556 82.6201 57.0038 74.0531 57.0038H62.9688V38.4256ZM62.9688 84.8496V64.3747H76.0401C85.402 64.3747 90.2596 67.823 90.2596 74.5475C90.2596 81.2718 85.5347 84.8496 76.6142 84.8496H62.9688Z" stroke="white" stroke-width="0.24566"/>
</g>
<path d="M13.2535 139.484V121.746H18.3003C19.8341 121.746 21.0505 122.122 21.9493 122.872C22.8482 123.622 23.2976 124.6 23.2976 125.804C23.2976 126.81 23.0255 127.684 22.4812 128.426C21.9369 129.168 21.1865 129.696 20.2299 130.009V130.059C21.4257 130.199 22.3823 130.652 23.0997 131.419C23.8171 132.178 24.1759 133.168 24.1759 134.388C24.1759 135.905 23.6316 137.134 22.5431 138.074C21.4545 139.014 20.0815 139.484 18.424 139.484H13.2535ZM15.3316 123.627V129.354H17.4591C18.5971 129.354 19.4919 129.082 20.1434 128.537C20.7948 127.985 21.1206 127.21 21.1206 126.212C21.1206 124.488 19.9867 123.627 17.7189 123.627H15.3316ZM15.3316 131.221V137.604H18.1518C19.3723 137.604 20.3165 137.316 20.9845 136.738C21.6607 136.161 21.9988 135.369 21.9988 134.363C21.9988 132.269 20.5722 131.221 17.7189 131.221H15.3316ZM32.7975 139.781C30.9255 139.781 29.4288 139.192 28.3073 138.012C27.194 136.825 26.6374 135.254 26.6374 133.3C26.6374 131.172 27.2188 129.51 28.3815 128.315C29.5443 127.119 31.1152 126.521 33.0944 126.521C34.9828 126.521 36.4548 127.102 37.5103 128.265C38.5741 129.428 39.106 131.04 39.106 133.102C39.106 135.122 38.5329 136.742 37.3866 137.963C36.2486 139.175 34.7189 139.781 32.7975 139.781ZM32.9459 128.228C31.643 128.228 30.6122 128.673 29.8535 129.564C29.0948 130.446 28.7155 131.667 28.7155 133.225C28.7155 134.726 29.099 135.91 29.8659 136.775C30.6328 137.641 31.6595 138.074 32.9459 138.074C34.2571 138.074 35.2632 137.65 35.9641 136.8C36.6733 135.951 37.0279 134.743 37.0279 133.176C37.0279 131.593 36.6733 130.372 35.9641 129.514C35.2632 128.657 34.2571 128.228 32.9459 128.228ZM47.641 139.781C45.7691 139.781 44.2724 139.192 43.1509 138.012C42.0376 136.825 41.481 135.254 41.481 133.3C41.481 131.172 42.0623 129.51 43.2251 128.315C44.3878 127.119 45.9588 126.521 47.9379 126.521C49.8263 126.521 51.2983 127.102 52.3539 128.265C53.4177 129.428 53.9495 131.04 53.9495 133.102C53.9495 135.122 53.3764 136.742 52.2302 137.963C51.0922 139.175 49.5625 139.781 47.641 139.781ZM47.7895 128.228C46.4865 128.228 45.4557 128.673 44.6971 129.564C43.9384 130.446 43.5591 131.667 43.5591 133.225C43.5591 134.726 43.9425 135.91 44.7094 136.775C45.4764 137.641 46.503 138.074 47.7895 138.074C49.1007 138.074 50.1067 137.65 50.8077 136.8C51.5169 135.951 51.8714 134.743 51.8714 133.176C51.8714 131.593 51.5169 130.372 50.8077 129.514C50.1067 128.657 49.1007 128.228 47.7895 128.228ZM63.066 139.361C62.5877 139.625 61.9568 139.757 61.1734 139.757C58.9551 139.757 57.846 138.52 57.846 136.046V128.55H55.6689V126.818H57.846V123.725L59.8746 123.07V126.818H63.066V128.55H59.8746V135.687C59.8746 136.536 60.0189 137.142 60.3075 137.505C60.5962 137.868 61.0745 138.049 61.7424 138.049C62.2537 138.049 62.6949 137.909 63.066 137.629V139.361ZM65.008 139.027V136.85C66.113 137.666 67.3294 138.074 68.657 138.074C70.4383 138.074 71.3289 137.48 71.3289 136.293C71.3289 135.955 71.2505 135.67 71.0939 135.44C70.9454 135.2 70.7393 134.99 70.4754 134.809C70.2197 134.627 69.9146 134.466 69.56 134.326C69.2137 134.178 68.8385 134.025 68.4344 133.869C67.8736 133.646 67.3788 133.423 66.95 133.201C66.5295 132.97 66.1749 132.714 65.8862 132.434C65.6059 132.145 65.3915 131.819 65.243 131.456C65.1028 131.094 65.0327 130.669 65.0327 130.182C65.0327 129.589 65.1688 129.065 65.4409 128.611C65.7131 128.15 66.0759 127.766 66.5295 127.461C66.983 127.148 67.4984 126.913 68.0757 126.756C68.6612 126.599 69.2631 126.521 69.8816 126.521C70.9784 126.521 71.9597 126.711 72.8256 127.09V129.143C71.8938 128.533 70.8217 128.228 69.6095 128.228C69.2302 128.228 68.8879 128.273 68.5828 128.364C68.2777 128.447 68.0138 128.566 67.7912 128.723C67.5768 128.879 67.4077 129.069 67.284 129.292C67.1686 129.506 67.1108 129.745 67.1108 130.009C67.1108 130.339 67.1686 130.615 67.284 130.838C67.4077 131.061 67.585 131.259 67.8159 131.432C68.0468 131.605 68.3272 131.762 68.657 131.902C68.9869 132.042 69.3621 132.195 69.7827 132.359C70.3434 132.574 70.8465 132.797 71.2918 133.027C71.7371 133.25 72.1164 133.506 72.4298 133.794C72.7431 134.075 72.9823 134.4 73.1472 134.772C73.3204 135.143 73.407 135.584 73.407 136.095C73.407 136.722 73.2668 137.266 72.9864 137.728C72.7143 138.19 72.3473 138.573 71.8855 138.878C71.4237 139.183 70.8918 139.41 70.2898 139.559C69.6878 139.707 69.057 139.781 68.3973 139.781C67.0943 139.781 65.9646 139.53 65.008 139.027ZM82.4121 139.361C81.9338 139.625 81.3029 139.757 80.5195 139.757C78.3012 139.757 77.1921 138.52 77.1921 136.046V128.55H75.015V126.818H77.1921V123.725L79.2207 123.07V126.818H82.4121V128.55H79.2207V135.687C79.2207 136.536 79.365 137.142 79.6536 137.505C79.9423 137.868 80.4206 138.049 81.0885 138.049C81.5998 138.049 82.041 137.909 82.4121 137.629V139.361ZM91.7264 128.871C91.3718 128.599 90.8605 128.463 90.1926 128.463C89.3267 128.463 88.601 128.871 88.0155 129.688C87.4383 130.504 87.1496 131.617 87.1496 133.027V139.484H85.121V126.818H87.1496V129.428H87.1991C87.4877 128.537 87.9289 127.845 88.5227 127.35C89.1164 126.847 89.7802 126.595 90.5142 126.595C91.0419 126.595 91.446 126.653 91.7264 126.768V128.871ZM102.995 139.484H100.967V137.505H100.917C100.035 139.023 98.7359 139.781 97.0206 139.781C95.7589 139.781 94.7693 139.447 94.0519 138.779C93.3427 138.111 92.9881 137.225 92.9881 136.12C92.9881 133.753 94.3817 132.376 97.169 131.988L100.967 131.456C100.967 129.304 100.097 128.228 98.3565 128.228C96.8309 128.228 95.4538 128.748 94.2251 129.787V127.708C95.4703 126.917 96.9051 126.521 98.5297 126.521C101.507 126.521 102.995 128.096 102.995 131.246V139.484ZM100.967 133.077L97.9112 133.497C96.9711 133.629 96.2619 133.864 95.7836 134.203C95.3053 134.532 95.0662 135.122 95.0662 135.971C95.0662 136.59 95.2847 137.097 95.7218 137.493C96.1671 137.88 96.7567 138.074 97.4906 138.074C98.4967 138.074 99.3255 137.724 99.9769 137.023C100.637 136.314 100.967 135.419 100.967 134.339V133.077ZM108.895 137.654H108.846V145.31H106.817V126.818H108.846V129.044H108.895C109.893 127.362 111.353 126.521 113.274 126.521C114.907 126.521 116.181 127.09 117.097 128.228C118.012 129.358 118.47 130.875 118.47 132.78C118.47 134.899 117.954 136.598 116.923 137.876C115.893 139.146 114.482 139.781 112.693 139.781C111.052 139.781 109.786 139.072 108.895 137.654ZM108.846 132.545V134.314C108.846 135.361 109.184 136.252 109.86 136.986C110.545 137.711 111.411 138.074 112.458 138.074C113.687 138.074 114.647 137.604 115.34 136.664C116.041 135.724 116.391 134.417 116.391 132.743C116.391 131.333 116.066 130.228 115.414 129.428C114.763 128.628 113.88 128.228 112.767 128.228C111.588 128.228 110.64 128.64 109.922 129.465C109.205 130.281 108.846 131.308 108.846 132.545Z" fill="#7952B3"/>
<defs>
<filter id="filter0_d_16_44" x="49.0235" y="27.4666" width="55.4021" height="70.3072" filterUnits="userSpaceOnUse" color-interpolation-filters="sRGB">
<feFlood flood-opacity="0" result="BackgroundImageFix"/>
<feColorMatrix in="SourceAlpha" type="matrix" values="0 0 0 0 0 0 0 0 0 0 0 0 0 0 0 0 0 0 127 0" result="hardAlpha"/>
<feOffset dy="0.98264"/>
<feGaussianBlur stdDeviation="1.96528"/>
<feColorMatrix type="matrix" values="0 0 0 0 0 0 0 0 0 0 0 0 0 0 0 0 0 0 0.15 0"/>
<feBlend mode="normal" in2="BackgroundImageFix" result="effect1_dropShadow_16_44"/>
<feBlend mode="normal" in="SourceGraphic" in2="effect1_dropShadow_16_44" result="shape"/>
</filter>
<linearGradient id="paint0_linear_16_44" x1="23.4436" y1="5.84488" x2="151.686" y2="107.645" gradientUnits="userSpaceOnUse">
<stop stop-color="#9013FE"/>
<stop offset="1" stop-color="#6610F2"/>
</linearGradient>
<linearGradient id="paint1_linear_16_44" x1="57.5519" y1="34.6305" x2="86.2157" y2="83.1097" gradientUnits="userSpaceOnUse">
<stop stop-color="white"/>
<stop offset="1" stop-color="#F1E5FC"/>
</linearGradient>
</defs>
</svg>
