<svg width="150" height="150" viewBox="0 0 150 150" fill="none" xmlns="http://www.w3.org/2000/svg">
<path d="M23.3027 30.5047L32.7177 136.093L74.9632 147.819L117.327 136.078L126.752 30.5047H23.3027ZM104.058 89.4146L101.316 114.958L101.326 117.146L75.0274 124.491V124.492L75.0064 124.51L48.4976 117.246L46.7043 97.0128H59.7037L60.6255 107.241L75.032 111.086L75.0274 111.103V111.066L89.4888 106.988L91.015 90.012H60.7865L60.5274 87.2641L59.937 80.6752L59.6278 77.1771H92.1655L93.3486 64.3422H43.7907L43.5305 61.3213L42.9401 54.2854L42.6309 50.3405H107.502L107.19 54.2306L104.058 89.4146ZM104.198 16.9394L95.8561 7.16852H104.198V1.33447H85.5287V6.42526L95.3182 15.3362H85.5287V21.1702H104.198V16.9394ZM82.0282 16.9394L74.0858 7.16852H82.0282V1.33447H64.5261V6.42526L73.549 15.3362H64.5261V21.1702H82.0282V16.9394ZM61.0257 15.3362H51.6912V7.16852H61.0257V1.33447H44.6903V21.1702H61.0257V15.3362Z" fill="#1572B6"/>
</svg>
