<svg width="150" height="150" viewBox="0 0 150 150" fill="none" xmlns="http://www.w3.org/2000/svg">
<path d="M22.8333 31.6716L32.2692 136.59L74.6116 147.887L117.072 136.803L126.518 31.6716H22.8333ZM106.891 55.5574L106.3 62.3645L106.04 65.5091H56.3697L57.5563 79.5108H104.859L104.543 82.1139L101.491 115.845L101.267 117.817L74.6757 124.974V124.968L74.6442 124.982L48.0678 118.08L46.2639 98.1797H59.2949L60.2178 108.051L74.6687 111.714L74.6757 111.441V111.455L89.1582 108.364L90.6704 92.3457H45.684L42.494 56.366L42.1824 52.6742H107.202L106.891 55.5574ZM32.6193 2.06616H39.1791V8.54895H45.1811V2.06616H51.7421V21.6942H45.1811V15.1216H39.1802V21.6942H32.6193V2.06616ZM60.3683 8.57579H54.5926V2.06616H72.7073V8.57579H66.9293V21.6942H60.3683V8.57579ZM75.5824 2.06616H82.4222L86.6309 8.96317L90.8349 2.06616H97.6782V21.6942H91.1429V11.9654L86.6309 18.9441H86.5165L82.001 11.9654V21.6942H75.5812V2.06616H75.5824ZM100.944 2.06616H107.506V15.2068H116.732V21.6954H100.944V2.06616Z" fill="#E44D26"/>
</svg>
