<svg width="150" height="150" viewBox="0 0 150 150" fill="none" xmlns="http://www.w3.org/2000/svg">
<path d="M2.70703 1.33447V147.186H148.558V1.33447H2.70703ZM79.8553 125.615C77.7025 129.989 73.593 132.863 68.8313 134.25C61.5142 135.931 54.5157 134.973 49.3094 131.848C45.8253 129.71 43.1043 126.42 41.2572 122.629L52.3653 115.826C52.4621 115.867 52.7538 116.395 53.1435 117.076C54.56 119.449 55.7817 121.13 58.183 122.309C60.5422 123.114 65.7217 123.629 67.7216 119.477C68.9433 117.365 68.5547 110.577 68.5547 103.066C68.5536 91.264 68.6084 79.5107 68.6084 67.8426H82.2706C82.2706 80.6775 82.3406 92.8333 82.2706 105.358C82.2997 113.035 82.966 119.88 79.8553 125.615ZM136.532 121.755C131.783 137.999 105.306 138.527 94.7251 127.794C92.4895 125.268 91.0881 123.949 89.7545 121.033C95.3773 117.798 95.3773 117.798 100.849 114.633C103.82 119.201 106.568 121.713 111.512 122.741C118.219 123.56 124.966 121.256 123.453 114.132C121.898 108.315 109.72 106.899 101.432 100.678C93.018 95.0269 91.0461 81.2959 97.9606 73.4503C100.265 70.5484 104.195 68.3828 108.318 67.342L112.622 66.7855C120.884 66.6186 126.048 68.8005 129.839 73.0337C130.894 74.1025 131.755 75.2553 133.365 77.7535C128.964 80.5585 128.978 80.5316 122.674 84.6131C121.327 81.7124 119.093 79.8922 116.731 79.1011C113.065 77.9903 108.442 79.198 107.483 83.0718C107.15 84.2654 107.219 85.3762 107.748 87.3481C109.233 90.7354 114.218 92.2079 118.689 94.2626C131.56 99.4829 135.906 105.08 136.975 111.743C138.004 117.479 136.727 121.2 136.532 121.755Z" fill="#F0DB4F"/>
</svg>
