<svg width="151" height="151" viewBox="0 0 151 151" fill="none" xmlns="http://www.w3.org/2000/svg">
<path d="M3.21748 106.404H8.01073V87.4744L15.4316 103.977C16.3067 105.974 17.5051 106.68 19.8562 106.68C22.2073 106.68 23.3601 105.974 24.2352 103.977L31.6561 87.4744V106.404H36.4494V87.5059C36.4494 85.6623 35.7119 84.7697 34.1904 84.31C30.5488 83.1735 28.1055 84.1571 26.9994 86.6156L19.7173 102.902L12.6663 86.6144C11.6057 84.1571 9.11686 83.1735 5.47525 84.3088C3.95373 84.7697 3.21631 85.6611 3.21631 87.5047V106.404H3.21748ZM40.4363 90.9946H45.2284V101.424C45.1841 101.989 45.4105 103.32 48.0358 103.362C49.3753 103.383 58.376 103.362 58.46 103.362V90.9433H63.2638C63.286 90.9433 63.2591 107.878 63.2591 107.948C63.2848 112.126 58.0773 113.032 55.676 113.102H40.5402V109.877C40.5659 109.877 55.6655 109.881 55.7029 109.876C58.7891 109.55 58.4239 108.017 58.4227 107.501V106.244H48.2353C43.4957 106.2 40.476 104.132 40.4375 101.751C40.4352 101.533 40.5414 91.0996 40.4363 90.9946V90.9946Z" fill="#00618A"/>
<path d="M66.9592 106.403H80.7416C82.3553 106.403 83.9235 106.066 85.1673 105.483C87.2407 104.531 88.2547 103.24 88.2547 101.548V98.0456C88.2547 96.6629 87.103 95.3712 84.8441 94.5125C83.6458 94.0504 82.1698 93.8065 80.7404 93.8065H74.932C72.9963 93.8065 72.0745 93.2231 71.8447 91.9326C71.7992 91.7786 71.7992 91.6561 71.7992 91.5021V89.3202C71.7992 89.1976 71.7992 89.074 71.8447 88.9211C72.0745 87.9375 72.5821 87.661 74.288 87.5069L74.7488 87.4766H88.439V84.2819H74.9799C73.0441 84.2819 72.0302 84.4044 71.1084 84.6809C68.2509 85.5724 67.0047 86.9854 67.0047 89.4438V92.2395C67.0047 94.3911 69.4492 96.2347 73.5505 96.6652C74.0126 96.6944 74.4723 96.7271 74.9332 96.7271H79.912C80.0963 96.7271 80.2807 96.7271 80.4195 96.7562C81.9411 96.8787 82.5851 97.1564 83.0472 97.7083C83.1656 97.8177 83.2596 97.9508 83.3229 98.099C83.3862 98.2472 83.4175 98.4071 83.4147 98.5683V101.365C83.4147 101.702 83.1849 102.133 82.724 102.502C82.3098 102.87 81.6178 103.117 80.6961 103.178L80.1885 103.209H66.9592V106.403ZM118.16 100.842C118.16 104.129 120.603 105.973 125.534 106.343C125.995 106.373 126.456 106.403 126.917 106.403H139.409V103.209H126.826C124.014 103.209 122.954 102.502 122.954 100.811V84.2795H118.161V100.842H118.16ZM91.314 101.008V89.6142C91.314 86.7205 93.3466 84.9645 97.3651 84.4102C97.7933 84.3488 98.2253 84.318 98.6579 84.318H107.758C108.22 84.318 108.635 84.3484 109.096 84.4102C113.115 84.9645 115.148 86.7193 115.148 89.6142V101.008C115.148 103.358 114.285 104.614 112.296 105.433L117.019 109.695H111.452L107.632 106.246L103.786 106.49H98.6579C97.7053 106.484 96.7579 106.349 95.8413 106.09C92.7924 105.259 91.314 103.657 91.314 101.008V101.008ZM96.4877 100.732C96.4877 100.886 96.5332 101.041 96.5798 101.225C96.8564 102.549 98.1049 103.288 99.9974 103.288H104.352L100.352 99.6768H105.919L109.407 102.827C110.051 102.483 110.473 101.96 110.621 101.287C110.667 101.133 110.667 100.979 110.667 100.825V89.8942C110.667 89.7717 110.667 89.6165 110.621 89.4625C110.344 88.2304 109.096 87.5233 107.249 87.5233H99.9963C97.8727 87.5233 96.4865 88.4474 96.4865 89.8942V100.732H96.4877Z" fill="#E48E00"/>
<path d="M143.626 78.9763C140.679 78.8958 138.429 79.17 136.503 79.9809C135.956 80.212 135.085 80.2178 134.996 80.9027C135.296 81.2189 135.342 81.6891 135.582 82.0765C136.041 82.8198 136.817 83.8162 137.509 84.3378C138.264 84.9084 139.044 85.5198 139.856 86.0145C141.297 86.8943 142.907 87.396 144.297 88.2758C145.114 88.7962 145.927 89.4496 146.726 90.0365C147.121 90.3247 147.385 90.7762 147.9 90.9571V90.8743C147.63 90.5312 147.56 90.0598 147.313 89.7004L146.223 88.6106C145.158 87.1965 143.806 85.9562 142.368 84.9247C141.222 84.1021 138.657 82.9901 138.179 81.6565L138.095 81.5736C138.907 81.4814 139.859 81.1874 140.608 80.9867C141.868 80.6483 142.994 80.7358 144.295 80.3998L146.055 79.8957V79.562C145.398 78.8876 144.928 77.9938 144.211 77.3836C142.336 75.7862 140.287 74.19 138.179 72.8576C137.01 72.1201 135.564 71.6406 134.324 71.0152C133.908 70.804 133.176 70.6955 132.899 70.3442C132.247 69.5146 131.893 68.4633 131.39 67.4961C130.316 65.4064 129.31 63.2825 128.374 61.1276C127.739 59.6749 127.324 58.2421 126.532 56.9388C122.727 50.6835 118.631 46.9077 112.287 43.1973C110.937 42.4073 109.312 42.097 107.596 41.6897L104.83 41.5217C104.269 41.2872 103.683 40.5988 103.155 40.2651C101.052 38.9372 95.6616 36.0494 94.105 39.8474C93.1226 42.244 95.5752 44.5823 96.4515 45.7969C97.0664 46.6487 97.8552 47.6031 98.2951 48.5611C98.5844 49.1912 98.6334 49.8224 98.882 50.4887C99.4899 52.1292 100.021 53.9156 100.808 55.4313C101.206 56.199 101.646 57.0076 102.149 57.6937C102.457 58.1138 102.987 58.3004 103.07 58.9504C102.553 59.6738 102.522 60.7986 102.232 61.7145C100.923 65.8439 101.416 70.9767 103.322 74.0325C103.906 74.9718 105.283 76.9834 107.176 76.211C108.831 75.5365 108.463 73.4468 108.936 71.6021C109.044 71.1855 108.977 70.8775 109.187 70.5974V70.6815L110.696 73.6977C111.813 75.4957 113.793 77.3731 115.472 78.6414C116.342 79.2983 117.028 80.436 118.153 80.8199V80.7347H118.07C117.851 80.3951 117.511 80.2551 117.231 79.9809C116.575 79.338 115.846 78.5399 115.305 77.8025C113.777 75.7302 112.429 73.4608 111.199 71.0992C110.612 69.972 110.102 68.7282 109.607 67.5801C109.416 67.1379 109.418 66.4681 109.022 66.2406C108.478 67.0807 107.681 67.7609 107.261 68.7539C106.591 70.3407 106.505 72.2765 106.256 74.2834L106.088 74.3662C104.92 74.085 104.511 72.8832 104.077 71.8529C102.98 69.2474 102.776 65.0504 103.742 62.0506C103.991 61.2735 105.12 58.829 104.662 58.1114C104.444 57.3962 103.724 56.9831 103.323 56.4347C102.796 55.7009 102.347 54.9146 101.982 54.0883C101.084 52.0568 100.665 49.7757 99.7209 47.721C99.2682 46.7385 98.5051 45.7456 97.8773 44.8728C97.1831 43.9044 96.4048 43.1926 95.8658 42.0235C95.6744 41.6081 95.4142 40.9418 95.6977 40.5148C95.7876 40.2266 95.9171 40.1064 96.2018 40.0119C96.6872 39.6373 98.0407 40.1367 98.5471 40.3468C99.8913 40.9057 101.013 41.4365 102.151 42.1903C102.697 42.5532 103.249 43.2533 103.911 43.447H104.665C105.844 43.7177 107.166 43.5298 108.268 43.8647C110.216 44.4574 111.962 45.378 113.546 46.3792C118.376 49.4292 122.323 53.7697 125.025 58.948C125.46 59.7823 125.649 60.5769 126.03 61.4613C126.803 63.2442 127.776 65.0796 128.543 66.824C129.31 68.5637 130.058 70.3197 131.142 71.7678C131.711 72.5285 133.912 72.9369 134.912 73.3593C135.613 73.6556 136.761 73.9649 137.425 74.3639C138.693 75.1293 139.923 76.0406 141.112 76.8784C141.706 77.3008 143.535 78.219 143.626 78.9763V78.9763ZM106.172 47.0536C105.664 47.0452 105.157 47.1017 104.663 47.2216V47.3044H104.748C105.04 47.9077 105.557 48.2951 105.92 48.8131L106.759 50.5727L106.842 50.4898C107.361 50.1246 107.598 49.54 107.596 48.6463C107.387 48.4269 107.356 48.1527 107.177 47.8925C106.939 47.5425 106.474 47.3464 106.172 47.0536V47.0536Z" fill="#00618A"/>
</svg>
