<svg width="150" height="150" viewBox="0 0 150 150" fill="none" xmlns="http://www.w3.org/2000/svg">
<path fill-rule="evenodd" clip-rule="evenodd" d="M74.0134 117.293C76.1044 119.022 78.5558 119.76 81.2021 119.896C82.2966 119.953 83.4226 119.9 84.4995 119.704C86.2078 119.393 87.9113 119.004 89.5728 118.503C92.9566 117.482 95.8806 115.718 98.0637 112.869C99.3075 111.244 100.328 109.488 100.984 107.547C101.526 105.945 102.034 104.326 102.439 102.687C102.759 101.395 102.918 100.062 103.111 98.742C103.241 97.8693 103.319 96.9871 103.4 96.1062C103.53 94.6769 103.667 93.2499 103.761 91.817C103.828 90.8206 103.825 89.8194 103.864 88.8218C103.877 88.5173 103.926 88.2151 103.955 87.9129C103.979 87.6317 104.122 87.5348 104.409 87.5395C105.417 87.5547 106.427 87.5803 107.434 87.5348C108.563 87.4847 109.699 87.4357 110.81 87.2501C112.391 86.9854 113.959 86.6506 115.51 86.2467C117.339 85.7671 119.018 84.9095 120.636 83.9341C122.517 82.7964 124.234 81.4628 125.624 79.744C126.836 78.2482 127.41 76.5143 127.117 74.6229C126.693 71.8751 124.383 70.0747 121.699 69.9522C120.725 69.9078 119.738 70.0105 118.77 70.133C117.597 70.2824 116.442 70.5461 115.273 70.7199C114.466 70.8413 113.648 70.895 112.842 70.979L112.82 70.874C114.326 68.0305 115.894 65.2196 117.317 62.3376C118.411 60.1253 119.344 57.8349 120.309 55.5596C121.907 51.7931 123.183 47.9112 124.24 43.9638C125.252 40.1857 126.117 36.3668 126.391 32.4463C126.501 30.8816 126.577 29.3099 126.566 27.7429C126.559 26.492 126.424 25.2401 126.299 23.9939C126.157 22.5657 125.725 21.2122 125.128 19.9101C124.341 18.1925 123.12 16.7842 121.835 15.447C120.807 14.3759 119.675 13.4004 118.554 12.425C116.954 11.0342 115.155 9.92219 113.288 8.93624C111.172 7.81219 108.93 6.9427 106.609 6.34592C105.195 5.98937 103.772 5.66994 102.341 5.38797C101.832 5.28529 101.319 5.02393 100.807 5.02393H91.1597C90.8108 5.02393 90.4654 5.25262 90.1142 5.29113C87.8054 5.54314 85.5257 6.01392 83.3059 6.69713C82.4775 6.95266 81.7214 6.80331 80.9338 6.7298C80.3294 6.67379 79.7355 6.51861 79.1311 6.48827C76.8313 6.37392 74.5292 6.20824 72.2282 6.23274C70.0253 6.25608 67.8445 6.62012 65.7128 7.22453C63.9287 7.73326 62.182 8.3505 60.5811 9.28978C59.8974 9.69116 59.3536 9.61532 58.6454 9.41229C56.2668 8.71547 53.8675 8.09133 51.4508 7.54073C49.9445 7.20353 48.3938 7.03317 46.8548 6.87448C45.3778 6.72107 43.8951 6.62882 42.4104 6.59795C40.9612 6.56645 39.5027 6.56761 38.0594 6.69596C35.7619 6.90015 33.5088 7.36688 31.3176 8.12064C28.9021 8.94646 26.6451 10.178 24.6434 11.7622C22.6015 13.3783 20.9633 15.349 19.6483 17.6021C18.261 19.9789 17.3077 22.5237 16.7173 25.1946C16.3964 26.6426 16.5143 28.1314 16.2937 29.6016C16.2261 30.0566 16.3626 30.514 16.3626 30.9714V37.3714C16.3626 37.7961 16.2377 38.222 16.2914 38.649C16.4232 39.6747 16.3777 40.7084 16.5516 41.7271C16.8246 43.3396 17.0708 44.9463 17.4022 46.5472C17.8654 48.7839 18.3076 51.0184 18.821 53.2446C19.1944 54.8653 19.5993 56.4767 20.0439 58.0787C20.7206 60.5267 21.381 62.9782 22.1476 65.397C22.8605 67.6454 23.6726 69.8612 24.4836 72.0781C25.5947 75.1436 26.9567 78.1123 28.5557 80.954C29.9501 83.4172 31.5404 85.7239 33.6757 87.62C35.084 88.8708 36.6487 89.8311 38.4701 90.3118C39.8929 90.6897 41.3842 90.7313 42.8258 90.4332C44.4969 90.0936 46.0582 89.346 47.3705 88.2571C47.5245 88.1322 47.6914 88.0354 47.8746 88.2664C48.5677 89.1439 49.4941 89.7296 50.4637 90.2348C53.0797 91.6 55.9302 92.0095 58.8251 92.1752C59.5275 92.2149 60.2346 92.1146 60.9405 92.0959C62.3185 92.0574 63.6557 91.789 64.9707 91.4086C65.6614 91.2091 66.3347 90.9547 67.0371 90.7191C67.0733 91.467 67.1199 92.1857 67.1433 92.9057L67.2401 96.8296C67.2588 97.427 67.2821 98.0244 67.337 98.6195C67.4793 100.153 67.6182 101.686 67.8013 103.214C67.9274 104.268 68.0604 105.329 68.3077 106.358C68.805 108.432 69.4852 110.457 70.3403 112.411C71.1589 114.308 72.4182 115.981 74.0134 117.293V117.293ZM69.8234 97.7281C69.7406 95.8857 69.6787 94.0424 69.6379 92.1986C69.5889 89.9326 69.5726 87.6655 69.5411 85.3996L69.5352 85.3132C68.3836 86.0051 67.2483 86.7612 66.0476 87.3855C64.6393 88.1171 63.1108 88.5406 61.5274 88.6608C60.2871 88.7541 59.0281 88.8393 57.7936 88.7413C55.768 88.5768 53.7425 88.2606 51.9292 87.2618C51.1941 86.8569 50.4264 86.3634 49.9188 85.7181C48.7042 84.1674 49.2864 82.2083 51.1183 81.2656C52.3843 80.6122 53.7658 80.3403 55.138 80.0229C56.3324 79.7521 57.5143 79.429 58.6804 79.0545C59.8309 78.6776 60.5566 77.7441 61.2742 76.8282L62.4107 75.3673L61.0444 75.225C59.6885 75.099 58.3945 74.7244 57.1577 74.176C56.1006 73.7081 56.0842 73.6568 55.3072 74.4992C54.012 75.9052 52.7518 77.3463 51.4812 78.7768C50.5466 79.8292 49.619 80.8875 48.6867 81.9435C47.7672 82.9878 46.9038 84.0904 45.9108 85.0612C44.4383 86.5034 42.6624 87.3703 40.5435 87.2723C39.1842 87.2093 37.9404 86.7332 36.8202 85.955C34.5111 84.3471 32.9558 82.0952 31.5381 79.7324C29.7237 76.7033 28.3294 73.4771 27.1381 70.1634C26.3131 67.8718 25.4835 65.579 24.7648 63.2547C23.9818 60.7286 23.2946 58.1732 22.619 55.6156C22.1079 53.6869 21.6552 51.7418 21.2235 49.7932C20.7265 47.5783 20.2667 45.3552 19.8443 43.1249C19.5631 41.6186 19.4009 40.09 19.1734 38.5744C18.8665 36.5289 18.8105 34.4672 18.9226 32.4148C19.0217 30.5654 19.2866 28.7218 19.5503 26.8853C19.9155 24.344 20.7533 21.9462 21.9574 19.6814C22.7002 18.3013 23.6106 17.0182 24.6679 15.8612C26.4065 13.9372 28.5102 12.5475 30.8508 11.5032C32.4855 10.774 34.2136 10.3364 35.9743 9.9922C38.5879 9.48347 41.2249 9.50447 43.8619 9.55815C45.0147 9.58265 46.164 9.79151 47.3157 9.90702C49.7963 10.1532 52.2268 10.6759 54.6269 11.3189C56.3771 11.7879 58.0912 12.397 59.825 12.9244C59.9977 12.9769 60.2533 12.9722 60.3968 12.8801C62.7479 11.3445 65.316 10.3317 68.0499 9.75184C69.0872 9.53248 70.1583 9.43563 71.2189 9.36796C72.5071 9.28745 73.8081 9.21044 75.0939 9.28628C76.6399 9.37496 78.1813 9.60248 79.718 9.81251C80.4647 9.91519 81.1928 10.1731 81.9396 10.2431C82.2989 10.2769 82.6782 10.0167 83.0562 9.92802C84.9861 9.48114 86.9078 8.98524 88.8552 8.63403C90.3044 8.37267 91.7863 8.24899 93.2588 8.16498C94.904 8.07046 96.5585 8.00162 98.2014 8.08097C100.278 8.18131 102.34 8.47651 104.375 8.95024C106.898 9.53714 109.315 10.3889 111.615 11.5721C113.334 12.4577 114.966 13.4821 116.437 14.7423C117.401 15.5695 118.388 16.3851 119.258 17.3069C120.331 18.4434 121.426 19.5787 122.1 21.0337C122.608 22.1317 122.969 23.2682 123.07 24.4688C123.193 25.9635 123.344 27.4628 123.331 28.9598C123.318 30.3904 123.122 31.8197 122.984 33.2479C122.668 36.5009 121.962 39.684 121.102 42.825C120.385 45.4196 119.572 47.9867 118.665 50.5213C117.838 52.8584 116.882 55.1524 115.917 57.4382C115.206 59.1305 114.434 60.7966 113.602 62.4333C112.022 65.5276 110.379 68.5905 108.479 71.5075C108.151 72.0104 107.839 72.5262 107.52 73.0407C108.349 73.5996 109.288 73.7968 110.234 73.8995C111.133 73.9963 112.05 74.0559 112.949 73.9882C114.387 73.8808 115.821 73.6755 117.252 73.4759C118.668 73.2776 120.056 72.875 121.512 72.9812C122.963 73.0874 124.004 74.1912 123.905 75.5517C123.842 76.4128 123.446 77.1514 122.875 77.7826C120.174 80.7627 116.783 82.5689 112.904 83.4592C111.431 83.7975 109.911 83.9714 108.403 84.1126C107.114 84.2263 105.82 84.2567 104.528 84.2036C103.58 84.1686 102.641 83.9516 101.673 83.8115C101.575 84.6972 101.482 85.6201 101.37 86.5395L100.919 90.0668C100.782 91.1846 100.676 92.3071 100.535 93.4249C100.397 94.51 100.226 95.5893 100.081 96.6733C99.9469 97.6826 99.8477 98.6977 99.6961 99.7058C99.4662 101.251 99.2457 102.799 98.9435 104.332C98.5818 106.164 98.0287 107.938 97.1221 109.591C96.0183 111.608 94.4536 113.145 92.4607 114.283C90.4071 115.455 88.161 116.066 85.8869 116.577C84.2743 116.94 82.6163 116.998 80.984 116.85C78.1544 116.594 75.7391 115.384 73.9131 113.189C72.171 111.095 70.9914 108.696 70.5702 105.979C70.3719 104.686 70.2178 103.386 70.1081 102.083C69.9818 100.633 69.8869 99.1815 69.8234 97.7281V97.7281ZM73.0041 79.1128C73.0216 80.0813 72.9213 81.0497 72.926 82.0182C72.9458 86.5255 72.9785 91.0341 73.017 95.5426C73.024 96.2789 73.0602 97.0175 73.1127 97.7526C73.2235 99.2928 73.3332 100.834 73.4825 102.37C73.5899 103.461 73.7357 104.548 73.9073 105.631C74.1523 107.163 74.85 108.528 75.6411 109.834C76.3225 110.956 77.2105 111.908 78.3785 112.566C80.3644 113.683 82.5008 113.776 84.6547 113.366C86.1097 113.089 87.5402 112.642 88.9521 112.181C90.3417 111.736 91.6103 110.977 92.6602 109.963C93.6508 109.004 94.3532 107.834 94.827 106.542C95.7452 104.038 96.0334 101.4 96.4127 98.784C96.555 97.8039 96.6787 96.8215 96.8082 95.8402C96.9564 94.7235 97.1057 93.6081 97.2481 92.4914C97.3554 91.6583 97.4511 90.8264 97.5526 89.9945C97.6985 88.7996 97.8513 87.606 97.9902 86.4112C98.0964 85.4871 98.185 84.5595 98.2807 83.633C98.4021 82.4487 98.5316 81.2679 98.6378 80.0813C98.7171 79.1828 98.6844 78.2669 98.8443 77.3836C99.1372 75.7652 99.9026 74.3884 101.338 73.4969C101.938 73.1259 102.617 72.8809 103.282 72.5658L103.167 72.392C102.552 71.5939 101.922 70.8086 101.319 70.0012C100.372 68.734 99.6902 67.321 99.0053 65.901C98.3566 64.5545 97.5631 63.2804 96.8806 61.949C95.6892 59.6271 94.4758 57.311 93.3778 54.9459C91.9974 51.9705 90.91 48.8924 90.5681 45.5974C90.4223 44.2042 90.3849 42.811 90.6685 41.4307C91.12 39.2254 92.2705 37.5009 94.2074 36.3177C96.0043 35.2209 98.0053 34.8662 100.055 34.7554C101.327 34.6865 102.607 34.7426 103.927 34.7426L103.884 34.5197C103.062 32.8021 102.296 31.0554 101.396 29.3799C100.129 27.0136 98.5047 24.8807 96.6985 22.9006C95.3657 21.4283 93.9011 20.0809 92.323 18.8751C90.7618 17.6931 89.1166 16.6372 87.3606 15.7749C85.2744 14.7372 83.0713 13.9538 80.7984 13.4413C78.599 12.9536 76.3879 12.6549 74.1313 12.6304C72.2084 12.6094 70.2971 12.698 68.4233 13.1309C65.5949 13.7855 63.0081 14.95 60.7596 16.8355C59.5143 17.8794 58.4018 19.0723 57.4471 20.3873C56.3188 21.9333 55.411 23.6065 54.6339 25.3579C53.5674 27.7627 52.8358 30.2632 52.3341 32.8348C52.0844 34.1183 51.8884 35.41 51.6889 36.7016C51.6189 37.1555 51.6142 37.6164 51.5722 38.1356L52.4263 37.6911L53.2594 37.3177C56.0796 36.0284 59.0001 35.1988 62.1388 35.2933C63.4736 35.333 64.7478 35.5978 65.9356 36.1824C68.2109 37.3049 69.5411 39.2126 70.1198 41.6256C70.5188 43.2918 70.793 44.9906 71.0591 46.686C71.2668 48.0092 71.4803 49.3463 71.5036 50.6812C71.5375 52.6321 71.4395 54.5876 71.3333 56.5374C71.2425 58.1953 70.8994 59.8298 70.3158 61.3843C69.261 64.2033 68.0849 66.9768 66.9869 69.7795C66.624 70.7059 66.3452 71.6639 66.0033 72.6825L67.3895 72.6837C67.5575 72.6872 67.729 72.6919 67.8912 72.7304C69.1525 73.0279 70.2481 73.5996 71.1454 74.5704C72.3449 75.8586 72.9726 77.3661 73.0041 79.1128V79.1128ZM48.913 65.747C48.1981 64.0646 47.7668 62.2754 47.6366 60.452C47.5152 58.7321 47.7194 57.0216 47.8967 55.3087C48.0671 53.6507 48.2118 51.9845 48.2608 50.3206C48.3436 47.5821 48.1593 44.8506 48.0286 42.1145C47.9504 40.4856 48.1394 38.8369 48.2841 37.2045C48.4148 35.7343 48.5782 34.2607 48.857 32.8115C49.3226 30.3799 49.9422 27.9832 50.8231 25.6601C51.6574 23.4572 52.6188 21.3137 53.9723 19.3827C54.9023 18.0572 55.9547 16.8215 56.9664 15.5264L56.6653 15.419C53.3714 14.3736 50.0227 13.5545 46.5771 13.1986C44.9494 13.0294 43.3147 12.9314 41.6823 12.8334C41.1806 12.8042 40.6719 12.8719 40.169 12.9197C38.924 13.0399 37.6627 13.0866 36.4375 13.3199C34.3524 13.7167 32.3514 14.3841 30.4996 15.4704C28.8609 16.4347 27.4242 17.7069 26.2688 19.217C24.9771 20.8867 24.1055 22.7746 23.4813 24.7862C22.7438 27.1606 22.3915 29.6051 22.297 32.0706C22.2141 34.2327 22.1733 36.4064 22.5467 38.5604C22.8232 40.1624 23.0087 41.7831 23.3144 43.3804C23.7254 45.5584 24.1868 47.7265 24.6983 49.8831C25.4368 52.9681 26.1766 56.0555 27.0529 59.1032C27.8906 62.0214 28.8346 64.9139 29.8614 67.7726C30.6992 70.105 31.6688 72.3943 32.6897 74.6521C33.3548 76.1234 34.1599 77.5399 35.0047 78.9168C35.902 80.38 36.9241 81.7685 38.3079 82.8303C40.057 84.1698 41.4093 84.3786 43.1875 82.9073C43.9483 82.2784 44.5912 81.4989 45.2539 80.758C46.3052 79.5819 47.3203 78.3707 48.3681 77.1887C49.7018 75.6847 51.0518 74.1959 52.3925 72.6965C52.676 72.3803 52.9502 72.0536 53.2256 71.7339L52.767 71.3337C51.1139 69.7545 49.8023 67.8531 48.913 65.747V65.747ZM99.4837 20.938C100.58 22.2119 101.621 23.5332 102.601 24.8982C104.482 27.5345 105.995 30.4141 107.099 33.4579C107.59 34.8056 107.982 36.1661 107.807 37.6397C107.685 38.6724 107.693 39.719 107.604 40.7575C107.528 41.6209 107.39 42.4797 107.279 43.3408C107.111 44.6383 106.868 45.9334 106.796 47.2367C106.726 48.4782 106.8 49.7314 106.878 50.974C106.956 52.2377 107.126 53.4955 107.242 54.7557C107.372 56.1873 107.55 57.6155 107.59 59.0495C107.622 60.2257 107.517 61.4076 107.416 62.5838C107.285 63.993 106.943 65.3745 106.401 66.6816C106.024 67.6081 105.574 68.5042 105.151 69.4306L105.321 69.6103L105.58 69.811L105.843 69.3443C108.046 65.8774 110.004 62.2604 111.701 58.5198C112.79 56.1053 113.822 53.666 114.798 51.2039C116.32 47.3765 117.549 43.4393 118.475 39.4261C118.895 37.6246 119.217 35.795 119.501 33.9655C119.724 32.535 119.909 31.0881 119.951 29.6448C119.994 28.1139 119.91 26.5714 119.769 25.0452C119.662 23.8924 119.378 22.7326 118.657 21.7933C117.495 20.2846 116.241 18.8424 114.7 17.7001C113.401 16.7399 112.106 15.7516 110.714 14.9441C108.505 13.6618 106.115 12.81 103.617 12.229C101.177 11.6607 98.7078 11.4157 96.2225 11.3632C94.757 11.3317 93.2844 11.4892 91.8224 11.6281C90.4969 11.7517 89.1796 11.9641 87.846 12.1391C89.2776 12.9442 90.6906 13.6606 92.0208 14.5042C94.8211 16.2778 97.3321 18.4119 99.4837 20.938V20.938ZM63.1026 70.6009C64.0069 67.7072 65.2402 64.9419 66.4338 62.1626C67.4035 59.9071 67.932 57.5327 68.1082 55.0917C68.1957 53.8887 68.1724 52.6706 68.1129 51.4641C68.0549 50.1218 67.9318 48.783 67.7442 47.4526C67.4933 45.7561 67.2086 44.0584 66.8072 42.3933C66.372 40.5918 65.2752 39.3363 63.3943 38.8731C62.2497 38.5919 61.1109 38.6035 59.9522 38.7867C57.125 39.2313 54.5371 40.2732 52.1264 41.7994C51.641 42.1063 51.3727 42.3548 51.4578 43.0491C51.6352 44.5239 51.6737 46.0221 51.6667 47.5098C51.6574 49.6159 51.5675 51.722 51.4882 53.8269C51.4625 54.5118 51.3633 55.1955 51.2887 55.8781C51.1766 56.9236 50.9585 57.9679 50.9655 59.0122C50.9725 60.088 51.0821 61.1883 51.3435 62.2302C52.1731 65.5346 53.928 68.237 56.8065 70.1447C58.5765 71.3185 60.5345 71.9089 62.6849 72.0221C62.8272 71.5285 62.9591 71.063 63.1026 70.6009V70.6009ZM59.7235 42.2603C59.3443 41.4657 59.5613 40.8065 60.4388 40.5008C60.6535 40.4272 60.8728 40.3456 61.0945 40.3246C61.4014 40.2942 61.7106 40.3164 62.0198 40.3164C63.1341 40.3234 64.2052 40.4786 65.1235 41.1857C65.7139 41.6407 65.8726 42.2416 65.4899 42.8624C64.9473 43.741 64.1224 44.182 63.1073 44.266C61.5099 44.3979 60.3886 43.6535 59.7235 42.2603V42.2603ZM104.033 41.9698L104.396 38.7902C104.448 38.3655 104.226 38.2488 103.869 38.2383C102.745 38.208 101.622 38.1671 100.499 38.1485C99.234 38.1251 98.0007 38.3282 96.8292 38.8089C95.5294 39.3445 94.5399 40.2009 94.135 41.6162C93.8388 42.6591 93.7453 43.7492 93.8597 44.8273C94.0176 46.4955 94.3954 48.1354 94.9833 49.7045C95.7697 51.7966 96.5912 53.8876 97.5748 55.8921C98.9061 58.605 100.411 61.2326 101.825 63.9046C102.202 64.6175 102.522 65.3631 102.915 66.1951C103.709 64.54 104.143 62.7352 104.187 60.9001C104.226 59.3821 104.105 57.8605 104.017 56.3425C103.962 55.4137 103.83 54.4896 103.74 53.5632C103.615 52.2727 103.424 50.981 103.394 49.687C103.365 48.3709 103.458 47.0477 103.57 45.7327C103.675 44.4749 103.883 43.2253 104.033 41.9698V41.9698ZM101.502 40.95C101.085 42.1016 100.193 42.7527 99.0356 42.9429C97.9575 43.1214 97.0124 42.7235 96.31 41.8624C95.8094 41.2498 96.0008 40.5253 96.751 40.1099C97.6121 39.6338 98.5584 39.5136 99.6751 39.4413C99.9796 39.4961 100.435 39.544 100.869 39.6665C101.498 39.8438 101.731 40.3199 101.502 40.95V40.95ZM68.1339 76.4245C67.5178 75.9204 66.701 75.8912 66.1153 76.4443C65.3872 77.1327 64.7466 77.9192 64.1061 78.6939C63.3675 79.59 62.6721 80.5211 61.7199 81.2154C60.3326 82.2247 58.7119 82.6424 57.0854 83.0379C55.7925 83.353 54.4927 83.6459 53.1964 83.9469L53.1801 84.1149C53.5651 84.2923 53.9373 84.5151 54.3399 84.6423C56.3176 85.2677 58.3304 85.5804 60.4213 85.4031C61.9288 85.2736 63.3663 84.9445 64.728 84.2993C66.603 83.4113 68.0464 82.003 69.2727 80.3671C69.478 80.0941 69.5714 79.6904 69.5947 79.338C69.6776 78.0942 69.0463 77.1689 68.1339 76.4245V76.4245ZM104.241 75.8854C103.271 76.211 102.482 76.7068 102.248 77.7558C102.088 78.4652 102.03 79.1991 101.968 79.9261C101.956 80.0544 102.116 80.2901 102.237 80.3228C102.984 80.52 103.736 80.7522 104.499 80.821C105.438 80.9062 106.392 80.8794 107.337 80.8327C108.357 80.7813 109.384 80.7148 110.39 80.5468C112.757 80.1478 115.05 79.5014 117.085 78.1572C117.82 77.673 118.546 77.1782 119.276 76.6858L119.216 76.582C118.437 76.6975 117.661 76.8387 116.88 76.9215C115.288 77.0919 113.695 77.2716 112.098 77.3638C111.327 77.4081 110.545 77.2599 109.768 77.1969C108.463 77.0907 107.189 76.8014 106.087 76.1036C105.451 75.7022 104.919 75.6579 104.241 75.8854V75.8854Z" fill="#336791"/>
<path d="M3.33521 120.753C5.0105 120.481 6.70549 120.349 8.40266 120.358C11.0105 120.358 12.9229 120.965 14.1364 122.057C15.2588 123.028 15.9262 124.514 15.9262 126.336C15.9262 128.186 15.379 129.643 14.3475 130.704C12.952 132.191 10.6768 132.949 8.09812 132.949C7.30936 132.949 6.58127 132.919 5.97569 132.767V140.959H3.33521V120.753V120.753ZM5.97569 130.612C6.5521 130.764 7.28019 130.825 8.15996 130.825C11.3442 130.825 13.2869 129.277 13.2869 126.456C13.2869 123.756 11.3757 122.452 8.46333 122.452C7.31052 122.452 6.43075 122.543 5.97569 122.664V130.612V130.612ZM31.9139 133.494C31.9139 138.925 28.1509 141.292 24.6015 141.292C20.6273 141.292 17.5633 138.38 17.5633 133.737C17.5633 128.822 20.779 125.94 24.8442 125.94C29.0622 125.939 31.9139 129.004 31.9139 133.494V133.494ZM20.2644 133.646C20.2644 136.862 22.115 139.289 24.724 139.289C27.2723 139.289 29.1824 136.892 29.1824 133.585C29.1824 131.098 27.9397 127.943 24.7835 127.943C21.6273 127.943 20.2644 130.855 20.2644 133.646ZM34.9161 138.227C35.7048 138.743 37.1003 139.289 38.4351 139.289C40.3767 139.289 41.2868 138.318 41.2868 137.104C41.2868 135.83 40.5296 135.132 38.5565 134.404C35.9172 133.464 34.6734 132.008 34.6734 130.248C34.6734 127.882 36.5846 125.94 39.7396 125.94C41.2262 125.94 42.5318 126.365 43.3509 126.85L42.6835 128.792C41.7806 128.236 40.7407 127.941 39.6801 127.943C38.1026 127.943 37.2228 128.853 37.2228 129.945C37.2228 131.158 38.1038 131.704 40.015 132.432C42.5633 133.403 43.8678 134.677 43.8678 136.862C43.8678 139.44 41.8656 141.261 38.3768 141.261C36.7689 141.261 35.2824 140.866 34.251 140.259L34.9161 138.227V138.227ZM50.5105 122.056V126.273H54.3318V128.305H50.5105V136.223C50.5105 138.044 51.025 139.075 52.5127 139.075C53.0342 139.083 53.5544 139.021 54.0599 138.893L54.1812 140.895C53.6667 141.108 52.8464 141.259 51.8161 141.259C50.5723 141.259 49.57 140.865 48.9329 140.137C48.1757 139.348 47.9015 138.044 47.9015 136.314V128.305H45.6262V126.273H47.9015V122.754L50.5105 122.056V122.056ZM69.8048 126.274C69.743 127.336 69.6835 128.519 69.6835 130.309V138.834C69.6835 142.201 69.016 144.264 67.5902 145.539C66.1644 146.874 64.1014 147.299 62.2509 147.299C60.4913 147.299 58.5498 146.874 57.3655 146.085L58.0329 144.053C59.0037 144.659 60.5205 145.205 62.3407 145.205C65.0711 145.205 67.0733 143.78 67.0733 140.079V138.44H67.0126C66.1935 139.805 64.616 140.898 62.3407 140.898C58.7003 140.898 56.0913 137.803 56.0913 133.737C56.0913 128.762 59.3374 125.94 62.7048 125.94C65.2542 125.94 66.6498 127.275 67.2868 128.489H67.3475L67.4689 126.274H69.8048V126.274ZM67.0441 132.068C67.0441 131.613 67.0138 131.219 66.8925 130.855C66.4071 129.308 65.1026 128.034 63.161 128.034C60.6115 128.034 58.7925 130.187 58.7925 133.585C58.7925 136.467 60.2486 138.864 63.1307 138.864C64.7689 138.864 66.2554 137.832 66.8318 136.134C66.9835 135.678 67.0453 135.163 67.0453 134.708V132.068H67.0441ZM73.9295 130.855C73.9295 129.126 73.8991 127.639 73.8081 126.274H76.1452L76.2351 129.156H76.3564C77.0239 127.184 78.6317 125.94 80.4216 125.94C80.725 125.94 80.9362 125.971 81.1789 126.031V128.549C80.8804 128.484 80.5754 128.454 80.2699 128.458C78.389 128.458 77.053 129.884 76.6901 131.886C76.6152 132.297 76.5746 132.713 76.5688 133.13V140.957H73.9295V130.855ZM85.034 134.101C85.0947 137.711 87.3991 139.198 90.0688 139.198C91.9812 139.198 93.1328 138.864 94.1339 138.439L94.589 140.35C93.6485 140.775 92.0407 141.261 89.7047 141.261C85.1845 141.261 82.4845 138.287 82.4845 133.858C82.4845 129.429 85.0935 125.939 89.371 125.939C94.1643 125.939 95.4384 130.156 95.4384 132.856C95.4384 133.402 95.3778 133.827 95.3474 134.1H85.034V134.101ZM92.8609 132.19C92.8901 130.491 92.162 127.852 89.1598 127.852C86.4598 127.852 85.2767 130.339 85.0632 132.19H92.8609V132.19ZM98.4721 137.741C99.9024 138.6 101.536 139.061 103.205 139.076C105.905 139.076 107.482 137.65 107.482 135.587C107.482 133.676 106.39 132.584 103.629 131.522C100.292 130.339 98.2294 128.61 98.2294 125.728C98.2294 122.543 100.869 120.176 104.843 120.176C106.936 120.176 108.453 120.662 109.363 121.177L108.635 123.331C107.442 122.69 106.107 122.356 104.752 122.361C101.961 122.361 100.899 124.029 100.899 125.425C100.899 127.336 102.142 128.276 104.964 129.368C108.423 130.704 110.182 132.372 110.182 135.375C110.182 138.53 107.846 141.261 103.023 141.261C101.051 141.261 98.8968 140.684 97.8035 139.956L98.4721 137.741V137.741ZM130.66 143.96C128.022 143.268 125.412 142.479 122.833 141.594C122.408 141.443 121.983 141.291 121.589 141.291C116.735 141.109 112.579 137.529 112.579 130.946C112.579 124.393 116.583 120.176 122.105 120.176C127.656 120.176 131.268 124.484 131.268 130.521C131.268 135.769 128.841 139.137 125.443 140.32V140.441C127.475 140.957 129.69 141.443 131.419 141.746L130.66 143.96V143.96ZM128.475 130.643C128.475 126.547 126.353 122.329 122.014 122.329C117.554 122.329 115.37 126.455 115.4 130.885C115.37 135.223 117.766 139.137 121.892 139.137C126.11 139.137 128.475 135.314 128.475 130.643V130.643ZM134.693 120.51H137.334V138.743H146.071V140.957H134.693V120.51Z" fill="#336791"/>
</svg>
