<svg width="150" height="150" viewBox="0 0 150 150" fill="none" xmlns="http://www.w3.org/2000/svg">
<path d="M75.0718 66.7759C81.0648 66.7759 85.9231 61.9176 85.9231 55.9246C85.9231 49.9315 81.0648 45.0732 75.0718 45.0732C69.0788 45.0732 64.2205 49.9315 64.2205 55.9246C64.2205 61.9176 69.0788 66.7759 75.0718 66.7759Z" fill="#61DAFB"/>
<path d="M75.0717 95.8294C83.5894 104.114 91.9905 109.014 98.758 109.014C100.975 109.014 103.075 108.548 104.825 107.498C110.893 103.997 113.11 95.246 111.009 82.7612C110.659 80.5442 110.193 78.3273 109.609 75.9937C111.943 75.2936 114.043 74.5935 116.143 73.8934C127.928 69.3429 134.462 63.0421 134.462 56.1579C134.462 49.1571 127.928 42.8563 116.143 38.4224C114.043 37.6056 111.943 36.9056 109.609 36.3222C110.193 33.9885 110.659 31.7716 111.009 29.5547C112.993 16.8364 110.776 7.9687 104.709 4.46827C102.958 3.41814 100.858 2.95142 98.6413 2.95142C91.9905 2.95142 83.4728 7.85201 74.9551 16.1364C66.554 7.85201 58.153 2.95142 51.3855 2.95142C49.1686 2.95142 47.0683 3.41814 45.3181 4.46827C39.2507 7.9687 37.0338 16.7198 39.134 29.2046C39.4841 31.4216 39.9508 33.6385 40.5342 35.9721C38.2006 36.6722 36.1003 37.3723 34.0001 38.0724C22.2153 42.6229 15.6812 48.9237 15.6812 55.8079C15.6812 62.8087 22.2153 69.1095 34.0001 73.5434C36.1003 74.3601 38.2006 75.0602 40.5342 75.6436C39.9508 77.9772 39.4841 80.1942 39.134 82.4111C37.1504 94.896 39.3674 103.764 45.3181 107.147C47.0683 108.198 49.1686 108.664 51.3855 108.664C58.153 108.898 66.554 103.997 75.0717 95.8294ZM68.5376 80.0775C70.6379 80.1942 72.8548 80.1942 75.0717 80.1942C77.2887 80.1942 79.5056 80.1942 81.6059 80.0775C79.5056 82.8778 77.2887 85.4448 75.0717 87.8951C72.8548 85.4448 70.6379 82.8778 68.5376 80.0775V80.0775ZM54.0692 68.0594C55.236 70.0429 56.2861 71.9098 57.5696 73.7767C53.9525 73.31 50.5687 72.7266 47.3017 72.0265C48.3518 68.8761 49.5186 65.6091 50.9188 62.342C51.8522 64.2089 52.9024 66.1925 54.0692 68.0594V68.0594ZM47.3017 39.9393C50.5687 39.2392 53.9525 38.6558 57.5696 38.189C56.4028 40.0559 55.236 41.9228 54.0692 43.9064C52.9024 45.89 51.8522 47.7569 50.9188 49.7405C49.4019 46.3567 48.2351 43.0896 47.3017 39.9393V39.9393ZM53.7191 55.9246C55.236 52.7742 56.8695 49.6238 58.7364 46.4734C60.4866 43.4397 62.4702 40.406 64.4538 37.3723C67.9542 37.1389 71.4546 37.0222 75.0717 37.0222C78.8055 37.0222 82.3059 37.1389 85.6897 37.3723C87.7899 40.406 89.6568 43.4397 91.4071 46.4734C93.274 49.6238 94.9075 52.7742 96.4243 55.9246C94.9075 59.0749 93.274 62.2253 91.4071 65.3757C89.6568 68.4094 87.6733 71.4431 85.6897 74.4768C82.1893 74.7102 78.6888 74.8269 75.0717 74.8269C71.3379 74.8269 67.8375 74.7102 64.4538 74.4768C62.3535 71.4431 60.4866 68.4094 58.7364 65.3757C56.8695 62.2253 55.236 59.0749 53.7191 55.9246V55.9246ZM99.3414 49.6238L96.191 43.7897C95.0242 41.8062 93.974 39.9393 92.6905 38.0724C96.3077 38.5391 99.6914 39.1225 102.958 39.8226C101.908 43.0896 100.742 46.3567 99.3414 49.6238ZM99.3414 62.2253C100.742 65.4924 101.908 68.7595 102.958 71.9098C99.6914 72.6099 96.3077 73.1933 92.6905 73.66C93.8574 71.7932 95.0242 69.9263 96.191 67.9427C97.2411 66.1925 98.2912 64.2089 99.3414 62.2253ZM102.025 102.714C101.092 103.297 99.9248 103.53 98.6413 103.53C92.9239 103.53 85.8064 98.8631 78.8055 91.8623C82.1893 88.2452 85.4563 84.1613 88.7234 79.6108C94.2074 79.1441 99.458 78.3273 104.359 77.1605C104.942 79.2607 105.292 81.361 105.642 83.4612C107.276 93.3791 105.992 100.497 102.025 102.714V102.714ZM108.092 41.2228C121.161 44.9565 128.978 50.6739 128.978 55.9246C128.978 60.4751 123.611 65.0257 114.16 68.6428C112.293 69.3429 110.193 70.0429 108.092 70.6263C106.576 65.8424 104.709 60.9418 102.375 55.9246C104.709 50.9073 106.692 46.0067 108.092 41.2228ZM98.758 8.31874C100.041 8.31874 101.092 8.5521 102.142 9.1355C105.992 11.3524 107.392 18.3533 105.759 28.3879C105.409 30.3714 104.942 32.4717 104.475 34.6886C99.5747 33.6385 94.3241 32.8217 88.8401 32.2383C85.6897 27.6878 82.3059 23.6039 78.9222 19.9868C85.9231 13.1027 93.0406 8.31874 98.758 8.31874V8.31874ZM81.6059 31.7716C79.5056 31.6549 77.2887 31.6549 75.0717 31.6549C72.8548 31.6549 70.6379 31.6549 68.5376 31.7716C70.6379 28.9713 72.8548 26.4043 75.0717 23.954C77.2887 26.4043 79.5056 29.0879 81.6059 31.7716ZM48.1184 9.1355C49.0519 8.5521 50.2187 8.31874 51.5022 8.31874C57.2196 8.31874 64.3371 12.986 71.3379 19.9868C67.9542 23.6039 64.6871 27.6878 61.4201 32.2383C55.9361 32.705 50.6854 33.5218 45.7848 34.6886C45.2014 32.5884 44.8514 30.4881 44.5013 28.3879C42.8678 18.47 44.1513 11.4691 48.1184 9.1355V9.1355ZM42.051 70.6263C28.9828 66.8926 21.1652 61.1752 21.1652 55.9246C21.1652 51.374 26.5325 46.8234 35.9836 43.2063C37.8505 42.5062 39.9508 41.8062 42.051 41.2228C43.5679 46.0067 45.4348 50.9073 47.7684 55.9246C45.4348 60.9418 43.4512 65.9591 42.051 70.6263V70.6263ZM44.5013 83.4612C44.8514 81.4777 45.3181 79.3774 45.7848 77.1605C50.6854 78.2106 55.9361 79.0274 61.4201 79.6108C64.5704 84.1613 67.9542 88.2452 71.3379 91.8623C64.3371 98.7464 57.2196 103.53 51.5022 103.53C50.2187 103.53 49.1686 103.297 48.1184 102.714C44.1513 100.497 42.8678 93.3791 44.5013 83.4612V83.4612ZM39.6007 131.534C42.1677 128.383 42.2844 124.883 40.8842 121.383C39.4841 117.882 36.567 116.249 32.9499 116.132C28.6327 116.015 24.1989 116.132 19.8817 116.132H19.0649V146.352H22.5653V134.918H28.0493C28.7494 134.918 29.3328 135.151 29.6829 135.734L36.6837 146.586C36.8004 146.819 37.1504 147.169 37.3838 147.169H41.9344C39.134 142.852 36.4504 138.768 33.65 134.567C36.1003 134.217 38.2006 133.401 39.6007 131.534V131.534ZM22.5653 131.3V119.749H23.8488C26.5325 119.749 29.3328 119.632 32.0165 119.866C35.1669 119.982 37.3838 122.433 37.3838 125.583C37.3838 128.733 34.8168 131.184 31.6664 131.3C28.8661 131.417 26.0658 131.3 22.5653 131.3V131.3ZM67.7208 132.817C65.8539 124.65 58.3864 122.549 52.669 125.116C48.2351 127.1 46.2515 130.95 46.1349 135.734C46.0182 139.351 47.0683 142.618 49.8687 145.069C53.019 147.869 56.8695 148.219 60.8367 147.519C63.0536 147.052 65.0372 146.002 66.554 144.369C65.9706 143.552 65.3872 142.735 64.8038 142.035C61.5367 144.835 57.9196 145.769 53.9525 143.902C51.3855 142.618 50.102 139.468 49.8687 137.134H67.9542V135.618C68.0709 134.567 67.9542 133.634 67.7208 132.817V132.817ZM50.102 134.684C49.752 131.184 53.2524 127.45 57.1029 127.45C61.5367 127.333 64.3371 130.017 64.4538 134.684H50.102ZM85.9231 124.533C84.1728 124.183 82.3059 124.066 80.5557 124.183C77.7554 124.416 75.3051 125.7 73.3215 127.8C73.9049 128.617 74.3716 129.434 75.0717 130.367C75.3051 130.134 75.5385 129.9 75.7718 129.784C77.6387 128.033 79.8556 127.1 82.5393 127.333C84.6396 127.45 86.6231 128.15 87.2065 130.25C87.6733 131.884 87.5566 133.634 87.6733 135.384C87.3232 135.384 87.2065 135.268 87.0899 135.151C84.2895 132.817 81.1391 132.351 77.7554 133.167C74.605 133.984 72.6214 136.434 72.3881 139.585C72.1547 143.202 73.7882 145.886 76.9386 147.169C78.9222 147.986 81.1391 147.986 83.2394 147.519C84.8729 147.169 85.573 146.236 87.9066 144.952V146.469H91.1737C91.1737 141.802 91.2904 136.084 91.1737 130.717C91.1737 127.333 89.1901 125.233 85.9231 124.533ZM87.5566 139.235C87.4399 139.585 87.5566 139.935 87.5566 140.285C87.5566 142.735 86.9732 143.552 84.6396 144.485C83.006 145.069 81.2558 145.302 79.5056 144.719C77.522 144.135 76.1219 142.385 76.1219 140.402C76.0052 138.418 77.2887 136.434 79.2722 135.851C81.9559 134.918 84.4062 135.501 86.6231 137.134C87.3232 137.718 87.7899 138.301 87.5566 139.235V139.235ZM105.759 127.683C108.793 126.75 111.593 127.333 113.693 129.9L114.043 130.134C114.86 129.434 115.56 128.733 116.493 127.917C116.143 127.567 116.027 127.333 115.793 126.983C112.41 123.366 105.759 122.899 101.675 125.816C95.9576 130.017 96.0743 138.185 98.8746 142.502C101.558 146.586 105.409 147.986 109.959 147.402C112.643 147.052 114.86 145.769 116.61 143.552C115.793 142.852 114.977 142.152 114.16 141.335C113.926 141.568 113.81 141.685 113.693 141.918C110.543 145.419 105.292 145.069 102.492 141.335C100.858 139.118 100.508 136.551 100.975 133.984C101.208 131.067 102.725 128.733 105.759 127.683ZM130.028 143.552C129.795 143.669 129.678 143.785 129.678 143.785C128.745 144.485 127.811 144.602 126.761 144.252C125.711 143.785 125.595 142.852 125.478 141.918V128.617C125.478 128.383 125.478 128.85 125.595 127.683H130.028V124.183H125.361V118.349H121.861V124.65H118.827C118.594 124.65 118.244 124.883 118.244 125.116C118.127 125.933 118.244 126.516 118.244 127.683H121.977V142.618C121.977 144.485 122.444 146.119 124.078 147.052C125.828 148.102 129.212 147.869 130.729 146.586C130.962 146.469 131.079 146.002 131.079 145.886C130.729 145.185 130.378 144.369 130.028 143.552V143.552Z" fill="#61DAFB"/>
</svg>
