<svg width="100" height="138" viewBox="0 0 100 138" fill="none" xmlns="http://www.w3.org/2000/svg">
<g clip-path="url(#clip0_17_30)">
<path d="M59.99 95.6808C57.5103 98.8041 52.4823 97.0928 52.4225 93.1047L51.5488 34.7734H90.7636C97.8664 34.7734 101.828 42.9788 97.4111 48.5426L59.99 95.6808Z" fill="url(#paint0_linear_17_30)"/>
<path d="M59.99 95.6808C57.5103 98.8041 52.4823 97.0928 52.4225 93.1047L51.5488 34.7734H90.7636C97.8664 34.7734 101.828 42.9788 97.4111 48.5426L59.99 95.6808Z" fill="url(#paint1_linear_17_30)" fill-opacity="0.2"/>
<path d="M44.0417 1.82093C46.5214 -1.30279 51.5495 0.40878 51.6092 4.39697L51.9921 62.7281H13.2681C6.16508 62.7281 2.20357 54.5228 6.62046 48.959L44.0417 1.82093Z" fill="#3ECF8E"/>
</g>
<path d="M0.0751953 130.278C0.213658 131.572 1.3914 133.792 4.80929 133.792C7.78821 133.792 9.22022 131.896 9.22022 130.046C9.22022 128.382 8.08848 127.018 5.84857 126.555L4.23186 126.208C3.60843 126.093 3.19281 125.746 3.19281 125.191C3.19281 124.544 3.83935 124.058 4.64771 124.058C5.9408 124.058 6.42577 124.914 6.51823 125.584L9.08153 125.006C8.94306 123.781 7.85755 121.723 4.62459 121.723C2.17664 121.723 0.375467 123.411 0.375467 125.445C0.375467 127.041 1.36828 128.359 3.5622 128.844L5.06333 129.191C5.9408 129.376 6.2873 129.792 6.2873 130.301C6.2873 130.902 5.80234 131.434 4.78617 131.434C3.44685 131.434 2.77696 130.601 2.70784 129.7L0.0751953 130.278Z" fill="white"/>
<path d="M19.0356 133.445H21.9685C21.9222 133.052 21.8529 132.266 21.8529 131.387V122.07H18.7813V128.682C18.7813 130 17.9963 130.925 16.6338 130.925C15.202 130.925 14.5553 129.908 14.5553 128.636V122.07H11.4839V129.26C11.4839 131.734 13.0541 133.746 15.8024 133.746C17.003 133.746 18.3199 133.283 18.9433 132.22C18.9433 132.682 18.9893 133.214 19.0356 133.445Z" fill="white"/>
<path d="M28.202 137.838V132.335C28.7561 133.098 29.9109 133.722 31.4814 133.722C34.6913 133.722 36.8387 131.179 36.8387 127.734C36.8387 124.358 34.9222 121.815 31.5968 121.815C29.8881 121.815 28.6179 122.578 28.1098 123.457V122.07H25.1309V137.838H28.202ZM33.8136 127.757C33.8136 129.792 32.5667 130.971 30.9962 130.971C29.4262 130.971 28.156 129.769 28.156 127.757C28.156 125.746 29.4262 124.567 30.9962 124.567C32.5667 124.567 33.8136 125.746 33.8136 127.757Z" fill="white"/>
<path d="M38.5781 130.347C38.5781 132.127 40.0559 133.769 42.481 133.769C44.1663 133.769 45.2518 132.983 45.829 132.081C45.829 132.52 45.8753 133.145 45.9446 133.445H48.762C48.6926 133.052 48.6237 132.243 48.6237 131.642V126.046C48.6237 123.757 47.2842 121.723 43.6818 121.723C40.6333 121.723 38.9935 123.688 38.8091 125.468L41.5339 126.046C41.6264 125.052 42.3654 124.197 43.7045 124.197C44.998 124.197 45.6215 124.867 45.6215 125.677C45.6215 126.07 45.4139 126.393 44.7671 126.486L41.9729 126.902C40.0793 127.179 38.5781 128.312 38.5781 130.347ZM43.1273 131.48C42.1345 131.48 41.6493 130.832 41.6493 130.162C41.6493 129.283 42.2727 128.844 43.0582 128.729L45.6215 128.335V128.844C45.6215 130.856 44.4206 131.48 43.1273 131.48Z" fill="white"/>
<path d="M54.6991 133.445V132.058C55.2992 133.029 56.5001 133.723 58.0705 133.723C61.304 133.723 63.4285 131.156 63.4285 127.711C63.4285 124.335 61.5115 121.769 58.1861 121.769C56.5001 121.769 55.2532 122.509 54.7451 123.318V116.706H51.72V133.445H54.6991ZM60.3567 127.734C60.3567 129.815 59.1098 130.971 57.5393 130.971C55.9922 130.971 54.6991 129.792 54.6991 127.734C54.6991 125.653 55.9922 124.52 57.5393 124.52C59.1098 124.52 60.3567 125.653 60.3567 127.734Z" fill="white"/>
<path d="M65.1672 130.347C65.1672 132.127 66.645 133.769 69.0699 133.769C70.7555 133.769 71.8412 132.983 72.4182 132.081C72.4182 132.52 72.4646 133.145 72.5338 133.445H75.3511C75.2822 133.052 75.2129 132.243 75.2129 131.642V126.046C75.2129 123.757 73.8733 121.723 70.2707 121.723C67.2225 121.723 65.5829 123.688 65.3982 125.468L68.1228 126.046C68.2155 125.052 68.9545 124.197 70.2936 124.197C71.5872 124.197 72.2106 124.867 72.2106 125.677C72.2106 126.07 72.0028 126.393 71.356 126.486L68.562 126.902C66.6684 127.179 65.1672 128.312 65.1672 130.347ZM69.7166 131.48C68.7236 131.48 68.2384 130.832 68.2384 130.162C68.2384 129.283 68.8618 128.844 69.6473 128.729L72.2106 128.335V128.844C72.2106 130.856 71.0097 131.48 69.7166 131.48Z" fill="white"/>
<path d="M77.3389 130.278C77.4771 131.572 78.6551 133.792 82.0727 133.792C85.0519 133.792 86.4834 131.896 86.4834 130.046C86.4834 128.382 85.3522 127.018 83.112 126.555L81.4953 126.208C80.8719 126.093 80.4565 125.746 80.4565 125.191C80.4565 124.544 81.1028 124.058 81.9112 124.058C83.2047 124.058 83.6894 124.914 83.7821 125.584L86.3452 125.006C86.2065 123.781 85.1212 121.723 81.8883 121.723C79.4401 121.723 77.6391 123.411 77.6391 125.445C77.6391 127.041 78.6317 128.359 80.8259 128.844L82.327 129.191C83.2047 129.376 83.551 129.792 83.551 130.301C83.551 130.902 83.066 131.434 82.0498 131.434C80.7103 131.434 80.0409 130.601 79.9715 129.7L77.3389 130.278Z" fill="white"/>
<path d="M91.1482 126.463C91.2176 125.422 92.0953 124.22 93.6886 124.22C95.4436 124.22 96.1828 125.33 96.229 126.463H91.1482ZM96.5293 129.422C96.1597 130.439 95.3745 131.156 93.9427 131.156C92.4184 131.156 91.1482 130.069 91.0793 128.567H99.208C99.208 128.52 99.254 128.058 99.254 127.619C99.254 123.966 97.1527 121.723 93.6424 121.723C90.7328 121.723 88.0537 124.081 88.0537 127.711C88.0537 131.549 90.8017 133.792 93.9196 133.792C96.7138 133.792 98.5152 132.15 99.0926 130.185L96.5293 129.422Z" fill="white"/>
<defs>
<linearGradient id="paint0_linear_17_30" x1="51.5488" y1="47.7069" x2="86.4034" y2="62.3223" gradientUnits="userSpaceOnUse">
<stop stop-color="#249361"/>
<stop offset="1" stop-color="#3ECF8E"/>
</linearGradient>
<linearGradient id="paint1_linear_17_30" x1="36.097" y1="26.5468" x2="51.9961" y2="56.4706" gradientUnits="userSpaceOnUse">
<stop/>
<stop offset="1" stop-opacity="0"/>
</linearGradient>
<clipPath id="clip0_17_30">
<rect width="94.5254" height="98.012" fill="white" transform="translate(4.74243 0.0246582)"/>
</clipPath>
</defs>
</svg>
