<svg width="150" height="151" viewBox="0 0 150 151" fill="none" xmlns="http://www.w3.org/2000/svg">
<path d="M26.8768 142.059H24.192V147.283C24.192 148.682 25.0939 148.649 26.8756 148.563V150.664C23.2585 151.102 21.8315 150.108 21.8315 147.283V142.059H19.8433V139.812H21.8315V136.895L24.1651 136.198V139.812H26.8441V142.059H26.8768ZM37.1447 139.812H39.4783V150.664H37.1447V149.087C36.3244 150.227 35.0445 150.929 33.3526 150.929C30.4041 150.929 27.9573 148.417 27.9573 145.208C27.9573 141.973 30.4041 139.493 33.3537 139.493C35.0445 139.493 36.3244 140.19 37.1459 141.33L37.1447 139.812ZM33.6991 148.709C35.6547 148.709 37.1459 147.25 37.1459 145.241C37.1459 143.226 35.6547 141.767 33.6991 141.767C31.7494 141.767 30.2582 143.226 30.2582 145.241C30.2909 147.25 31.7494 148.709 33.7003 148.709H33.6991ZM43.3848 138.181C42.5692 138.181 41.8995 137.478 41.8995 136.689C41.8995 135.874 42.5692 135.204 43.3848 135.204C44.2016 135.204 44.876 135.874 44.876 136.689C44.9028 137.478 44.2004 138.181 43.3848 138.181ZM42.218 150.664V139.813H44.5516V150.664H42.218ZM47.2633 150.664V134.826H49.5969V150.664H47.2633ZM64.8576 139.813H67.3371L63.923 150.664H61.6162L59.3689 143.345L57.0948 150.664H54.7939L51.3798 139.813H53.8581L55.9583 147.31L58.2336 139.812H60.4809L62.7223 147.31L64.8576 139.813ZM70.2214 138.179C69.4058 138.179 68.7361 137.479 68.7361 136.689C68.7361 135.874 69.4058 135.204 70.2214 135.204C71.0382 135.204 71.7126 135.874 71.7126 136.689C71.7394 137.478 71.0697 138.181 70.2214 138.181V138.179ZM69.0546 150.664V139.813H71.3882V150.664H69.0546ZM79.8207 139.521C82.2407 139.521 83.9909 141.184 83.9909 143.982V150.664H81.6573V144.247C81.6573 142.583 80.6959 141.74 79.2373 141.74C77.6925 141.74 76.4662 142.642 76.4662 144.857V150.691H74.1326V139.844H76.4662V141.243C77.1954 140.077 78.3622 139.52 79.8207 139.52V139.521ZM95.1351 135.469H97.4687V150.664H95.1351V149.087C94.3183 150.227 93.0337 150.929 91.343 150.929C88.3933 150.929 85.9465 148.417 85.9465 145.208C85.9465 141.973 88.3933 139.493 91.343 139.493C93.0337 139.493 94.3183 140.19 95.1351 141.33V135.469ZM91.693 148.709C93.6439 148.709 95.1351 147.25 95.1351 145.241C95.1351 143.226 93.6439 141.767 91.693 141.767C89.7386 141.767 88.2474 143.226 88.2474 145.241C88.2474 147.25 89.7386 148.709 91.6942 148.709H91.693ZM105.312 150.956C102.05 150.956 99.5701 148.45 99.5701 145.241C99.5701 141.999 102.017 139.52 105.312 139.52C107.446 139.52 109.283 140.628 110.158 142.324L108.143 143.491C107.678 142.47 106.598 141.827 105.285 141.827C103.362 141.827 101.931 143.285 101.931 145.241C101.931 147.191 103.389 148.649 105.285 148.649C106.598 148.649 107.646 147.979 108.175 146.991L110.185 148.125C109.31 149.849 107.446 150.956 105.312 150.956ZM114.096 142.788C114.096 144.772 119.93 143.577 119.93 147.601C119.93 149.762 118.034 150.956 115.7 150.956C113.539 150.956 111.966 149.962 111.265 148.417L113.28 147.25C113.626 148.244 114.501 148.828 115.7 148.828C116.748 148.828 117.537 148.476 117.537 147.601C117.537 145.678 111.703 146.753 111.703 142.876C111.703 140.834 113.453 139.553 115.667 139.553C117.45 139.553 118.936 140.368 119.698 141.794L117.709 142.907C117.331 142.059 116.575 141.681 115.667 141.681C114.825 141.648 114.096 142.031 114.096 142.788ZM124.1 142.788C124.1 144.772 129.934 143.577 129.934 147.601C129.934 149.762 128.038 150.956 125.704 150.956C123.543 150.956 121.971 149.962 121.27 148.417L123.284 147.25C123.634 148.244 124.51 148.828 125.704 148.828C126.752 148.828 127.541 148.476 127.541 147.601C127.541 145.678 121.707 146.753 121.707 142.876C121.707 140.834 123.457 139.553 125.677 139.553C127.455 139.553 128.94 140.368 129.702 141.794L127.718 142.907C127.336 142.059 126.579 141.681 125.676 141.681C124.829 141.648 124.1 142.031 124.1 142.788Z" fill="#2D3748"/>
<path d="M75.0986 29.8726C55.1847 29.8726 42.743 39.8254 37.7607 59.7394C45.226 49.7853 53.9409 46.0527 63.8949 48.5415C69.5785 49.958 73.6401 54.0792 78.1382 58.6461C85.4587 66.0751 93.9321 74.6757 112.437 74.6757C132.349 74.6757 144.792 64.7216 149.774 44.803C142.308 54.7629 133.594 58.4956 123.639 56.0067C117.957 54.5891 113.9 50.4691 109.396 45.9022C102.08 38.4731 93.6089 29.8726 75.0986 29.8726V29.8726ZM37.7607 74.6757C17.848 74.6757 5.40513 84.6297 0.422852 104.548C7.8881 94.5885 16.6018 90.8558 26.557 93.3446C32.2406 94.7623 36.3022 98.8823 40.8003 103.449C48.1208 110.878 56.5942 119.479 75.0986 119.479C95.0114 119.479 107.454 109.526 112.437 89.612C104.97 99.5661 96.2564 103.299 86.3012 100.81C80.6188 99.3934 76.5618 95.2722 72.0579 90.7053C64.742 83.2762 56.271 74.6757 37.7607 74.6757Z" fill="#38B2AC"/>
</svg>
